<svg width="774" height="72" viewBox="0 0 774 72" fill="none" xmlns="http://www.w3.org/2000/svg">
<g clip-path="url(#clip0)">
<rect width="774" height="72" fill="white"/>
<path d="M1 10.25C0.585786 10.25 0.25 10.5858 0.25 11C0.25 11.4142 0.585786 11.75 1 11.75V10.25ZM716.53 11.5303C716.823 11.2374 716.823 10.7626 716.53 10.4697L711.757 5.6967C711.464 5.40381 710.99 5.40381 710.697 5.6967C710.404 5.98959 710.404 6.46447 710.697 6.75736L714.939 11L710.697 15.2426C710.404 15.5355 710.404 16.0104 710.697 16.3033C710.99 16.5962 711.464 16.5962 711.757 16.3033L716.53 11.5303ZM1 11.75H716V10.25H1V11.75Z" fill="#BCCCDC"/>
<line opacity="0.4" x1="52.5" y1="31" x2="52.5" y2="11" stroke="#BCCCDC"/>
<line opacity="0.4" x1="157.5" y1="31" x2="157.5" y2="11" stroke="#BCCCDC"/>
<line opacity="0.4" x1="250.5" y1="31" x2="250.5" y2="11" stroke="#BCCCDC"/>
<line opacity="0.4" x1="309.5" y1="31" x2="309.5" y2="11" stroke="#BCCCDC"/>
<line opacity="0.4" x1="328.5" y1="31" x2="328.5" y2="11" stroke="#BCCCDC"/>
<line opacity="0.4" x1="347.5" y1="31" x2="347.5" y2="11" stroke="#BCCCDC"/>
<line opacity="0.4" x1="430.5" y1="31" x2="430.5" y2="11" stroke="#BCCCDC"/>
<line opacity="0.4" x1="512.5" y1="31" x2="512.5" y2="11" stroke="#BCCCDC"/>
<line opacity="0.4" x1="531.5" y1="31" x2="531.5" y2="11" stroke="#BCCCDC"/>
<line opacity="0.4" x1="609.5" y1="31" x2="609.5" y2="11" stroke="#BCCCDC"/>
<rect y="30" width="105" height="42" rx="8" fill="#9446ED"/>
<path d="M21.2757 47.46C21.3957 47.46 21.4557 47.52 21.4557 47.64V48.414C21.4557 48.522 21.3957 48.576 21.2757 48.576H19.2237C19.1277 48.576 19.0797 48.63 19.0797 48.738V56.748C19.0797 56.916 19.0077 57 18.8637 57H17.7657C17.6337 57 17.5677 56.922 17.5677 56.766V48.72C17.5677 48.624 17.5257 48.576 17.4417 48.576H15.6777C15.5577 48.576 15.4977 48.522 15.4977 48.414V47.64C15.4977 47.52 15.5637 47.46 15.6957 47.46H17.4057C17.5137 47.46 17.5677 47.4 17.5677 47.28V45.966C17.5677 44.418 18.3177 43.644 19.8177 43.644H21.3117C21.4677 43.644 21.5457 43.716 21.5457 43.86V44.562C21.5457 44.682 21.4797 44.742 21.3477 44.742H20.0877C19.3917 44.742 19.0437 45.174 19.0437 46.038V47.298C19.0437 47.406 19.0977 47.46 19.2057 47.46H21.2757ZM24.8577 45.408C24.8577 45.528 24.8337 45.618 24.7857 45.678C24.7377 45.726 24.6537 45.75 24.5337 45.75H23.4897C23.3097 45.75 23.2197 45.648 23.2197 45.444V43.932C23.2197 43.74 23.3037 43.644 23.4717 43.644H24.6057C24.6777 43.644 24.7377 43.668 24.7857 43.716C24.8337 43.764 24.8577 43.83 24.8577 43.914V45.408ZM24.7857 56.694C24.7857 56.814 24.7617 56.898 24.7137 56.946C24.6657 56.982 24.5817 57 24.4617 57H23.5437C23.4357 57 23.3637 56.982 23.3277 56.946C23.2917 56.91 23.2737 56.844 23.2737 56.748V47.712C23.2737 47.544 23.3457 47.46 23.4897 47.46H24.5877C24.7197 47.46 24.7857 47.538 24.7857 47.694V56.694ZM27.8307 57C27.6627 57 27.5787 56.922 27.5787 56.766V47.694C27.5787 47.538 27.6447 47.46 27.7767 47.46H28.8207C28.9527 47.46 29.0187 47.526 29.0187 47.658V48.828C29.0187 48.9 29.0367 48.942 29.0727 48.954C29.1207 48.966 29.1687 48.942 29.2167 48.882C30.1287 47.814 31.0587 47.28 32.0067 47.28C32.4267 47.28 32.6367 47.358 32.6367 47.514V48.594C32.6367 48.714 32.5827 48.762 32.4747 48.738C32.2587 48.702 31.9887 48.684 31.6647 48.684C31.3167 48.684 30.9387 48.786 30.5307 48.99C30.1227 49.194 29.7807 49.458 29.5047 49.782C29.2287 50.106 29.0907 50.436 29.0907 50.772V56.73C29.0907 56.91 29.0007 57 28.8207 57H27.8307ZM40.1933 49.566C39.9413 49.194 39.5933 48.9 39.1493 48.684C38.7173 48.456 38.2133 48.342 37.6373 48.342C36.9773 48.342 36.4373 48.486 36.0173 48.774C35.5973 49.05 35.3873 49.416 35.3873 49.872C35.3873 50.148 35.4893 50.4 35.6933 50.628C35.9093 50.844 36.2933 51.036 36.8453 51.204L39.1313 51.888C39.9233 52.104 40.5113 52.428 40.8953 52.86C41.2793 53.28 41.4713 53.784 41.4713 54.372C41.4713 54.924 41.3033 55.416 40.9673 55.848C40.6313 56.268 40.1693 56.598 39.5813 56.838C38.9933 57.066 38.3273 57.18 37.5833 57.18C36.6593 57.18 35.8373 57 35.1173 56.64C34.3973 56.268 33.8873 55.788 33.5873 55.2C33.5513 55.14 33.5333 55.092 33.5333 55.056C33.5333 54.996 33.5633 54.948 33.6233 54.912L34.3253 54.516C34.4453 54.444 34.5353 54.45 34.5953 54.534C35.2433 55.566 36.2453 56.082 37.6013 56.082C38.3093 56.07 38.8913 55.926 39.3473 55.65C39.8153 55.362 40.0493 54.99 40.0493 54.534C40.0493 54.198 39.9113 53.916 39.6353 53.688C39.3593 53.46 38.9093 53.256 38.2853 53.076L36.4313 52.554C35.5553 52.326 34.9253 52.008 34.5413 51.6C34.1693 51.192 33.9833 50.694 33.9833 50.106C33.9833 49.554 34.1333 49.062 34.4333 48.63C34.7453 48.198 35.1773 47.868 35.7293 47.64C36.2933 47.4 36.9353 47.28 37.6553 47.28C38.4473 47.28 39.1553 47.43 39.7793 47.73C40.4153 48.03 40.9013 48.438 41.2373 48.954C41.3213 49.074 41.3153 49.158 41.2193 49.206L40.4633 49.62C40.4153 49.644 40.3793 49.656 40.3553 49.656C40.3073 49.656 40.2533 49.626 40.1933 49.566ZM46.2002 48.576C46.1042 48.576 46.0562 48.63 46.0562 48.738V54.444C46.0562 54.984 46.1462 55.356 46.3262 55.56C46.5062 55.764 46.8002 55.866 47.2082 55.866H48.4502C48.5822 55.866 48.6482 55.932 48.6482 56.064L48.6302 56.676C48.6302 56.796 48.5582 56.874 48.4142 56.91C48.1022 56.97 47.5382 57 46.7222 57C45.9662 57 45.4142 56.826 45.0662 56.478C44.7182 56.118 44.5442 55.554 44.5442 54.786V48.774C44.5442 48.642 44.4842 48.576 44.3642 48.576H42.9242C42.7922 48.576 42.7262 48.516 42.7262 48.396V47.64C42.7262 47.52 42.7862 47.46 42.9062 47.46H44.4362C44.5202 47.46 44.5622 47.412 44.5622 47.316L44.7602 44.454C44.7602 44.298 44.8262 44.22 44.9582 44.22H45.8582C46.0022 44.22 46.0742 44.304 46.0742 44.472V47.316C46.0742 47.412 46.1222 47.46 46.2182 47.46H48.4862C48.6182 47.46 48.6842 47.514 48.6842 47.622V48.396C48.6842 48.516 48.6182 48.576 48.4862 48.576H46.2002ZM54.7604 57C54.5924 57 54.5084 56.922 54.5084 56.766V47.694C54.5084 47.538 54.5744 47.46 54.7064 47.46H55.7504C55.8824 47.46 55.9484 47.526 55.9484 47.658V48.828C55.9484 48.9 55.9664 48.942 56.0024 48.954C56.0504 48.966 56.0984 48.942 56.1464 48.882C57.0584 47.814 57.9884 47.28 58.9364 47.28C59.3564 47.28 59.5664 47.358 59.5664 47.514V48.594C59.5664 48.714 59.5124 48.762 59.4044 48.738C59.1884 48.702 58.9184 48.684 58.5944 48.684C58.2464 48.684 57.8684 48.786 57.4604 48.99C57.0524 49.194 56.7104 49.458 56.4344 49.782C56.1584 50.106 56.0204 50.436 56.0204 50.772V56.73C56.0204 56.91 55.9304 57 55.7504 57H54.7604ZM62.1785 52.824C62.1785 53.4 62.3165 53.934 62.5925 54.426C62.8805 54.918 63.2645 55.308 63.7445 55.596C64.2245 55.884 64.7525 56.028 65.3285 56.028C66.5285 56.028 67.4645 55.53 68.1365 54.534C68.1845 54.486 68.2265 54.462 68.2625 54.462C68.2985 54.45 68.3405 54.456 68.3885 54.48L69.1445 54.858C69.2405 54.918 69.2525 55.002 69.1805 55.11C68.7125 55.83 68.1545 56.358 67.5065 56.694C66.8585 57.018 66.0845 57.18 65.1845 57.18C64.3085 57.18 63.5225 56.976 62.8265 56.568C62.1305 56.16 61.5845 55.59 61.1885 54.858C60.8045 54.114 60.6125 53.268 60.6125 52.32C60.6125 51.3 60.8105 50.412 61.2065 49.656C61.6025 48.888 62.1425 48.3 62.8265 47.892C63.5225 47.484 64.3025 47.28 65.1665 47.28C66.0305 47.28 66.7865 47.472 67.4345 47.856C68.0945 48.24 68.6045 48.804 68.9645 49.548C69.3245 50.28 69.5045 51.15 69.5045 52.158V52.23C69.5045 52.338 69.4865 52.422 69.4505 52.482C69.4145 52.53 69.3425 52.554 69.2345 52.554H62.3405C62.2325 52.554 62.1785 52.644 62.1785 52.824ZM67.6865 51.564C67.8185 51.564 67.9025 51.552 67.9385 51.528C67.9745 51.492 67.9925 51.42 67.9925 51.312C67.9925 50.784 67.8785 50.298 67.6505 49.854C67.4345 49.398 67.1105 49.038 66.6785 48.774C66.2585 48.498 65.7665 48.36 65.2025 48.36C64.5905 48.36 64.0565 48.516 63.6005 48.828C63.1445 49.128 62.7965 49.524 62.5565 50.016C62.3165 50.496 62.2025 51.012 62.2145 51.564H67.6865ZM77.1735 55.848C76.2495 56.736 75.1815 57.18 73.9695 57.18C73.0335 57.18 72.2955 56.946 71.7555 56.478C71.2275 55.998 70.9635 55.362 70.9635 54.57C70.9635 53.61 71.3655 52.854 72.1695 52.302C72.9855 51.75 74.1615 51.426 75.6975 51.33L77.1015 51.222C77.3055 51.198 77.4075 51.108 77.4075 50.952V50.466C77.4075 49.818 77.2035 49.308 76.7955 48.936C76.3995 48.552 75.8595 48.36 75.1755 48.36C74.1195 48.36 73.2555 48.84 72.5835 49.8C72.5475 49.86 72.5115 49.902 72.4755 49.926C72.4395 49.938 72.3915 49.932 72.3315 49.908L71.3595 49.584C71.2995 49.56 71.2695 49.518 71.2695 49.458C71.2695 49.422 71.2875 49.368 71.3235 49.296C71.6835 48.66 72.1935 48.168 72.8535 47.82C73.5255 47.46 74.3175 47.28 75.2295 47.28C76.4055 47.28 77.3055 47.556 77.9295 48.108C78.5535 48.648 78.8655 49.398 78.8655 50.358V56.73C78.8655 56.838 78.8475 56.91 78.8115 56.946C78.7755 56.982 78.7095 57 78.6135 57H77.7135C77.5695 57 77.4855 56.904 77.4615 56.712L77.4255 55.884C77.4135 55.8 77.3835 55.758 77.3355 55.758C77.2875 55.758 77.2335 55.788 77.1735 55.848ZM77.4075 52.428C77.4075 52.236 77.3175 52.14 77.1375 52.14L75.9675 52.248C74.8515 52.32 73.9875 52.536 73.3755 52.896C72.7755 53.256 72.4755 53.754 72.4755 54.39C72.4755 54.906 72.6555 55.314 73.0155 55.614C73.3875 55.914 73.8795 56.064 74.4915 56.064C74.8635 56.064 75.2295 55.998 75.5895 55.866C75.9495 55.734 76.2675 55.554 76.5435 55.326C76.8195 55.11 77.0295 54.882 77.1735 54.642C77.3295 54.39 77.4075 54.15 77.4075 53.922V52.428ZM88.2768 57C88.1088 57 88.0248 56.916 88.0248 56.748V55.974C88.0248 55.866 87.9948 55.812 87.9348 55.812C87.8988 55.812 87.8508 55.842 87.7908 55.902C87.4308 56.262 87.0348 56.568 86.6028 56.82C86.1828 57.06 85.6368 57.18 84.9648 57.18C84.1968 57.18 83.5128 57 82.9128 56.64C82.3128 56.28 81.8388 55.74 81.4908 55.02C81.1428 54.288 80.9688 53.406 80.9688 52.374C80.9688 51.366 81.1488 50.478 81.5088 49.71C81.8688 48.942 82.3668 48.348 83.0028 47.928C83.6388 47.496 84.3648 47.28 85.1808 47.28C85.7208 47.28 86.1888 47.364 86.5848 47.532C86.9808 47.7 87.3528 47.934 87.7008 48.234C87.7968 48.306 87.8628 48.342 87.8988 48.342C87.9588 48.342 87.9888 48.264 87.9888 48.108V43.878C87.9888 43.722 88.0548 43.644 88.1868 43.644H89.2848C89.4168 43.644 89.4828 43.722 89.4828 43.878V56.712C89.4828 56.82 89.4648 56.898 89.4288 56.946C89.3928 56.982 89.3148 57 89.1948 57H88.2768ZM87.9708 49.566C87.5868 49.182 87.1968 48.894 86.8008 48.702C86.4168 48.498 85.9968 48.396 85.5408 48.396C84.6288 48.396 83.8968 48.738 83.3448 49.422C82.7928 50.106 82.5168 51.072 82.5168 52.32C82.5168 53.58 82.7868 54.522 83.3268 55.146C83.8788 55.77 84.5808 56.082 85.4328 56.082C85.9008 56.082 86.3268 55.974 86.7108 55.758C87.1068 55.53 87.4128 55.248 87.6288 54.912C87.8568 54.576 87.9708 54.24 87.9708 53.904V49.566Z" fill="white"/>
<rect x="366" y="30" width="128" height="42" rx="8" fill="#9446ED"/>
<path d="M386.13 49.566C385.878 49.194 385.53 48.9 385.086 48.684C384.654 48.456 384.15 48.342 383.574 48.342C382.914 48.342 382.374 48.486 381.954 48.774C381.534 49.05 381.324 49.416 381.324 49.872C381.324 50.148 381.426 50.4 381.63 50.628C381.846 50.844 382.23 51.036 382.782 51.204L385.068 51.888C385.86 52.104 386.448 52.428 386.832 52.86C387.216 53.28 387.408 53.784 387.408 54.372C387.408 54.924 387.24 55.416 386.904 55.848C386.568 56.268 386.106 56.598 385.518 56.838C384.93 57.066 384.264 57.18 383.52 57.18C382.596 57.18 381.774 57 381.054 56.64C380.334 56.268 379.824 55.788 379.524 55.2C379.488 55.14 379.47 55.092 379.47 55.056C379.47 54.996 379.5 54.948 379.56 54.912L380.262 54.516C380.382 54.444 380.472 54.45 380.532 54.534C381.18 55.566 382.182 56.082 383.538 56.082C384.246 56.07 384.828 55.926 385.284 55.65C385.752 55.362 385.986 54.99 385.986 54.534C385.986 54.198 385.848 53.916 385.572 53.688C385.296 53.46 384.846 53.256 384.222 53.076L382.368 52.554C381.492 52.326 380.862 52.008 380.478 51.6C380.106 51.192 379.92 50.694 379.92 50.106C379.92 49.554 380.07 49.062 380.37 48.63C380.682 48.198 381.114 47.868 381.666 47.64C382.23 47.4 382.872 47.28 383.592 47.28C384.384 47.28 385.092 47.43 385.716 47.73C386.352 48.03 386.838 48.438 387.174 48.954C387.258 49.074 387.252 49.158 387.156 49.206L386.4 49.62C386.352 49.644 386.316 49.656 386.292 49.656C386.244 49.656 386.19 49.626 386.13 49.566ZM390.625 52.824C390.625 53.4 390.763 53.934 391.039 54.426C391.327 54.918 391.711 55.308 392.191 55.596C392.671 55.884 393.199 56.028 393.775 56.028C394.975 56.028 395.911 55.53 396.583 54.534C396.631 54.486 396.673 54.462 396.709 54.462C396.745 54.45 396.787 54.456 396.835 54.48L397.591 54.858C397.687 54.918 397.699 55.002 397.627 55.11C397.159 55.83 396.601 56.358 395.953 56.694C395.305 57.018 394.531 57.18 393.631 57.18C392.755 57.18 391.969 56.976 391.273 56.568C390.577 56.16 390.031 55.59 389.635 54.858C389.251 54.114 389.059 53.268 389.059 52.32C389.059 51.3 389.257 50.412 389.653 49.656C390.049 48.888 390.589 48.3 391.273 47.892C391.969 47.484 392.749 47.28 393.613 47.28C394.477 47.28 395.233 47.472 395.881 47.856C396.541 48.24 397.051 48.804 397.411 49.548C397.771 50.28 397.951 51.15 397.951 52.158V52.23C397.951 52.338 397.933 52.422 397.897 52.482C397.861 52.53 397.789 52.554 397.681 52.554H390.787C390.679 52.554 390.625 52.644 390.625 52.824ZM396.133 51.564C396.265 51.564 396.349 51.552 396.385 51.528C396.421 51.492 396.439 51.42 396.439 51.312C396.439 50.784 396.325 50.298 396.097 49.854C395.881 49.398 395.557 49.038 395.125 48.774C394.705 48.498 394.213 48.36 393.649 48.36C393.037 48.36 392.503 48.516 392.047 48.828C391.591 49.128 391.243 49.524 391.003 50.016C390.763 50.496 390.649 51.012 390.661 51.564H396.133ZM404.036 47.28C404.912 47.28 405.656 47.484 406.268 47.892C406.892 48.3 407.39 48.84 407.762 49.512L407.798 49.656C407.798 49.728 407.756 49.77 407.672 49.782L406.682 50.016L406.628 50.034C406.568 50.034 406.508 49.986 406.448 49.89C406.064 49.374 405.692 48.996 405.332 48.756C404.984 48.516 404.582 48.396 404.126 48.396C403.19 48.396 402.446 48.744 401.894 49.44C401.342 50.124 401.066 51.054 401.066 52.23C401.066 53.418 401.342 54.354 401.894 55.038C402.458 55.722 403.214 56.064 404.162 56.064C404.726 56.064 405.218 55.926 405.638 55.65C406.07 55.374 406.46 54.948 406.808 54.372C406.844 54.312 406.88 54.282 406.916 54.282C406.952 54.27 406.994 54.276 407.042 54.3L407.816 54.588C407.9 54.624 407.924 54.702 407.888 54.822C407.516 55.518 407.006 56.088 406.358 56.532C405.71 56.964 404.936 57.18 404.036 57.18C403.16 57.18 402.38 56.976 401.696 56.568C401.012 56.148 400.478 55.566 400.094 54.822C399.71 54.078 399.518 53.226 399.518 52.266C399.518 51.306 399.71 50.448 400.094 49.692C400.478 48.924 401.012 48.33 401.696 47.91C402.392 47.49 403.172 47.28 404.036 47.28ZM413.828 57.18C412.928 57.18 412.13 56.976 411.434 56.568C410.75 56.148 410.216 55.566 409.832 54.822C409.46 54.078 409.274 53.232 409.274 52.284C409.274 51.312 409.466 50.448 409.85 49.692C410.246 48.936 410.786 48.348 411.47 47.928C412.166 47.496 412.958 47.28 413.846 47.28C414.734 47.28 415.52 47.496 416.204 47.928C416.9 48.348 417.434 48.936 417.806 49.692C418.19 50.448 418.382 51.306 418.382 52.266C418.382 53.214 418.19 54.06 417.806 54.804C417.422 55.548 416.882 56.13 416.186 56.55C415.502 56.97 414.716 57.18 413.828 57.18ZM413.864 56.046C414.8 56.046 415.526 55.71 416.042 55.038C416.57 54.354 416.834 53.418 416.834 52.23C416.834 51.054 416.564 50.124 416.024 49.44C415.496 48.744 414.77 48.396 413.846 48.396C412.91 48.396 412.172 48.744 411.632 49.44C411.092 50.124 410.822 51.054 410.822 52.23C410.822 53.406 411.092 54.336 411.632 55.02C412.172 55.704 412.916 56.046 413.864 56.046ZM420.859 57C420.691 57 420.607 56.922 420.607 56.766V47.694C420.607 47.538 420.673 47.46 420.805 47.46H421.885C422.017 47.46 422.083 47.526 422.083 47.658V48.702C422.083 48.834 422.137 48.852 422.245 48.756C422.917 48.228 423.487 47.85 423.955 47.622C424.435 47.394 424.969 47.28 425.557 47.28C426.469 47.28 427.177 47.526 427.681 48.018C428.197 48.51 428.455 49.17 428.455 49.998V56.712C428.455 56.904 428.365 57 428.185 57H427.177C427.021 57 426.943 56.922 426.943 56.766V50.34C426.943 49.74 426.787 49.278 426.475 48.954C426.175 48.63 425.707 48.468 425.071 48.468C424.567 48.468 424.099 48.582 423.667 48.81C423.247 49.026 422.731 49.398 422.119 49.926V56.73C422.119 56.826 422.095 56.898 422.047 56.946C422.011 56.982 421.945 57 421.849 57H420.859ZM437.905 57C437.737 57 437.653 56.916 437.653 56.748V55.974C437.653 55.866 437.623 55.812 437.563 55.812C437.527 55.812 437.479 55.842 437.419 55.902C437.059 56.262 436.663 56.568 436.231 56.82C435.811 57.06 435.265 57.18 434.593 57.18C433.825 57.18 433.141 57 432.541 56.64C431.941 56.28 431.467 55.74 431.119 55.02C430.771 54.288 430.597 53.406 430.597 52.374C430.597 51.366 430.777 50.478 431.137 49.71C431.497 48.942 431.995 48.348 432.631 47.928C433.267 47.496 433.993 47.28 434.809 47.28C435.349 47.28 435.817 47.364 436.213 47.532C436.609 47.7 436.981 47.934 437.329 48.234C437.425 48.306 437.491 48.342 437.527 48.342C437.587 48.342 437.617 48.264 437.617 48.108V43.878C437.617 43.722 437.683 43.644 437.815 43.644H438.913C439.045 43.644 439.111 43.722 439.111 43.878V56.712C439.111 56.82 439.093 56.898 439.057 56.946C439.021 56.982 438.943 57 438.823 57H437.905ZM437.599 49.566C437.215 49.182 436.825 48.894 436.429 48.702C436.045 48.498 435.625 48.396 435.169 48.396C434.257 48.396 433.525 48.738 432.973 49.422C432.421 50.106 432.145 51.072 432.145 52.32C432.145 53.58 432.415 54.522 432.955 55.146C433.507 55.77 434.209 56.082 435.061 56.082C435.529 56.082 435.955 55.974 436.339 55.758C436.735 55.53 437.041 55.248 437.257 54.912C437.485 54.576 437.599 54.24 437.599 53.904V49.566ZM446.013 57C445.845 57 445.761 56.922 445.761 56.766V47.694C445.761 47.538 445.827 47.46 445.959 47.46H447.003C447.135 47.46 447.201 47.526 447.201 47.658V48.828C447.201 48.9 447.219 48.942 447.255 48.954C447.303 48.966 447.351 48.942 447.399 48.882C448.311 47.814 449.241 47.28 450.189 47.28C450.609 47.28 450.819 47.358 450.819 47.514V48.594C450.819 48.714 450.765 48.762 450.657 48.738C450.441 48.702 450.171 48.684 449.847 48.684C449.499 48.684 449.121 48.786 448.713 48.99C448.305 49.194 447.963 49.458 447.687 49.782C447.411 50.106 447.273 50.436 447.273 50.772V56.73C447.273 56.91 447.183 57 447.003 57H446.013ZM453.432 52.824C453.432 53.4 453.57 53.934 453.846 54.426C454.134 54.918 454.518 55.308 454.998 55.596C455.478 55.884 456.006 56.028 456.582 56.028C457.782 56.028 458.718 55.53 459.39 54.534C459.438 54.486 459.48 54.462 459.516 54.462C459.552 54.45 459.594 54.456 459.642 54.48L460.398 54.858C460.494 54.918 460.506 55.002 460.434 55.11C459.966 55.83 459.408 56.358 458.76 56.694C458.112 57.018 457.338 57.18 456.438 57.18C455.562 57.18 454.776 56.976 454.08 56.568C453.384 56.16 452.838 55.59 452.442 54.858C452.058 54.114 451.866 53.268 451.866 52.32C451.866 51.3 452.064 50.412 452.46 49.656C452.856 48.888 453.396 48.3 454.08 47.892C454.776 47.484 455.556 47.28 456.42 47.28C457.284 47.28 458.04 47.472 458.688 47.856C459.348 48.24 459.858 48.804 460.218 49.548C460.578 50.28 460.758 51.15 460.758 52.158V52.23C460.758 52.338 460.74 52.422 460.704 52.482C460.668 52.53 460.596 52.554 460.488 52.554H453.594C453.486 52.554 453.432 52.644 453.432 52.824ZM458.94 51.564C459.072 51.564 459.156 51.552 459.192 51.528C459.228 51.492 459.246 51.42 459.246 51.312C459.246 50.784 459.132 50.298 458.904 49.854C458.688 49.398 458.364 49.038 457.932 48.774C457.512 48.498 457.02 48.36 456.456 48.36C455.844 48.36 455.31 48.516 454.854 48.828C454.398 49.128 454.05 49.524 453.81 50.016C453.57 50.496 453.456 51.012 453.468 51.564H458.94ZM468.427 55.848C467.503 56.736 466.435 57.18 465.223 57.18C464.287 57.18 463.549 56.946 463.009 56.478C462.481 55.998 462.217 55.362 462.217 54.57C462.217 53.61 462.619 52.854 463.423 52.302C464.239 51.75 465.415 51.426 466.951 51.33L468.355 51.222C468.559 51.198 468.661 51.108 468.661 50.952V50.466C468.661 49.818 468.457 49.308 468.049 48.936C467.653 48.552 467.113 48.36 466.429 48.36C465.373 48.36 464.509 48.84 463.837 49.8C463.801 49.86 463.765 49.902 463.729 49.926C463.693 49.938 463.645 49.932 463.585 49.908L462.613 49.584C462.553 49.56 462.523 49.518 462.523 49.458C462.523 49.422 462.541 49.368 462.577 49.296C462.937 48.66 463.447 48.168 464.107 47.82C464.779 47.46 465.571 47.28 466.483 47.28C467.659 47.28 468.559 47.556 469.183 48.108C469.807 48.648 470.119 49.398 470.119 50.358V56.73C470.119 56.838 470.101 56.91 470.065 56.946C470.029 56.982 469.963 57 469.867 57H468.967C468.823 57 468.739 56.904 468.715 56.712L468.679 55.884C468.667 55.8 468.637 55.758 468.589 55.758C468.541 55.758 468.487 55.788 468.427 55.848ZM468.661 52.428C468.661 52.236 468.571 52.14 468.391 52.14L467.221 52.248C466.105 52.32 465.241 52.536 464.629 52.896C464.029 53.256 463.729 53.754 463.729 54.39C463.729 54.906 463.909 55.314 464.269 55.614C464.641 55.914 465.133 56.064 465.745 56.064C466.117 56.064 466.483 55.998 466.843 55.866C467.203 55.734 467.521 55.554 467.797 55.326C468.073 55.11 468.283 54.882 468.427 54.642C468.583 54.39 468.661 54.15 468.661 53.922V52.428ZM479.53 57C479.362 57 479.278 56.916 479.278 56.748V55.974C479.278 55.866 479.248 55.812 479.188 55.812C479.152 55.812 479.104 55.842 479.044 55.902C478.684 56.262 478.288 56.568 477.856 56.82C477.436 57.06 476.89 57.18 476.218 57.18C475.45 57.18 474.766 57 474.166 56.64C473.566 56.28 473.092 55.74 472.744 55.02C472.396 54.288 472.222 53.406 472.222 52.374C472.222 51.366 472.402 50.478 472.762 49.71C473.122 48.942 473.62 48.348 474.256 47.928C474.892 47.496 475.618 47.28 476.434 47.28C476.974 47.28 477.442 47.364 477.838 47.532C478.234 47.7 478.606 47.934 478.954 48.234C479.05 48.306 479.116 48.342 479.152 48.342C479.212 48.342 479.242 48.264 479.242 48.108V43.878C479.242 43.722 479.308 43.644 479.44 43.644H480.538C480.67 43.644 480.736 43.722 480.736 43.878V56.712C480.736 56.82 480.718 56.898 480.682 56.946C480.646 56.982 480.568 57 480.448 57H479.53ZM479.224 49.566C478.84 49.182 478.45 48.894 478.054 48.702C477.67 48.498 477.25 48.396 476.794 48.396C475.882 48.396 475.15 48.738 474.598 49.422C474.046 50.106 473.77 51.072 473.77 52.32C473.77 53.58 474.04 54.522 474.58 55.146C475.132 55.77 475.834 56.082 476.686 56.082C477.154 56.082 477.58 55.974 477.964 55.758C478.36 55.53 478.666 55.248 478.882 54.912C479.11 54.576 479.224 54.24 479.224 53.904V49.566Z" fill="white"/>
<rect x="550" y="30" width="120" height="42" rx="8" fill="#9446ED"/>
<path d="M568.47 47.28C569.346 47.28 570.09 47.484 570.702 47.892C571.326 48.3 571.824 48.84 572.196 49.512L572.232 49.656C572.232 49.728 572.19 49.77 572.106 49.782L571.116 50.016L571.062 50.034C571.002 50.034 570.942 49.986 570.882 49.89C570.498 49.374 570.126 48.996 569.766 48.756C569.418 48.516 569.016 48.396 568.56 48.396C567.624 48.396 566.88 48.744 566.328 49.44C565.776 50.124 565.5 51.054 565.5 52.23C565.5 53.418 565.776 54.354 566.328 55.038C566.892 55.722 567.648 56.064 568.596 56.064C569.16 56.064 569.652 55.926 570.072 55.65C570.504 55.374 570.894 54.948 571.242 54.372C571.278 54.312 571.314 54.282 571.35 54.282C571.386 54.27 571.428 54.276 571.476 54.3L572.25 54.588C572.334 54.624 572.358 54.702 572.322 54.822C571.95 55.518 571.44 56.088 570.792 56.532C570.144 56.964 569.37 57.18 568.47 57.18C567.594 57.18 566.814 56.976 566.13 56.568C565.446 56.148 564.912 55.566 564.528 54.822C564.144 54.078 563.952 53.226 563.952 52.266C563.952 51.306 564.144 50.448 564.528 49.692C564.912 48.924 565.446 48.33 566.13 47.91C566.826 47.49 567.606 47.28 568.47 47.28ZM578.261 57.18C577.361 57.18 576.563 56.976 575.867 56.568C575.183 56.148 574.649 55.566 574.265 54.822C573.893 54.078 573.707 53.232 573.707 52.284C573.707 51.312 573.899 50.448 574.283 49.692C574.679 48.936 575.219 48.348 575.903 47.928C576.599 47.496 577.391 47.28 578.279 47.28C579.167 47.28 579.953 47.496 580.637 47.928C581.333 48.348 581.867 48.936 582.239 49.692C582.623 50.448 582.815 51.306 582.815 52.266C582.815 53.214 582.623 54.06 582.239 54.804C581.855 55.548 581.315 56.13 580.619 56.55C579.935 56.97 579.149 57.18 578.261 57.18ZM578.297 56.046C579.233 56.046 579.959 55.71 580.475 55.038C581.003 54.354 581.267 53.418 581.267 52.23C581.267 51.054 580.997 50.124 580.457 49.44C579.929 48.744 579.203 48.396 578.279 48.396C577.343 48.396 576.605 48.744 576.065 49.44C575.525 50.124 575.255 51.054 575.255 52.23C575.255 53.406 575.525 54.336 576.065 55.02C576.605 55.704 577.349 56.046 578.297 56.046ZM585.293 57C585.125 57 585.041 56.922 585.041 56.766V47.694C585.041 47.538 585.107 47.46 585.239 47.46H586.319C586.439 47.46 586.499 47.526 586.499 47.658V48.702C586.499 48.846 586.559 48.864 586.679 48.756C587.327 48.228 587.879 47.85 588.335 47.622C588.791 47.394 589.301 47.28 589.865 47.28C590.537 47.28 591.089 47.43 591.521 47.73C591.965 48.03 592.265 48.408 592.421 48.864C592.445 48.9 592.469 48.918 592.493 48.918C592.529 48.918 592.589 48.888 592.673 48.828C593.297 48.3 593.855 47.91 594.347 47.658C594.851 47.406 595.379 47.28 595.931 47.28C596.795 47.28 597.467 47.526 597.947 48.018C598.439 48.51 598.685 49.176 598.685 50.016V56.712C598.685 56.904 598.595 57 598.415 57H597.407C597.251 57 597.173 56.922 597.173 56.766V50.34C597.173 49.74 597.029 49.278 596.741 48.954C596.453 48.63 596.021 48.468 595.445 48.468C594.965 48.468 594.515 48.588 594.095 48.828C593.675 49.056 593.267 49.344 592.871 49.692C592.775 49.788 592.709 49.872 592.673 49.944C592.637 50.016 592.619 50.106 592.619 50.214V56.712C592.619 56.904 592.529 57 592.349 57H591.341C591.185 57 591.107 56.922 591.107 56.766V50.34C591.107 49.092 590.531 48.468 589.379 48.468C588.899 48.468 588.455 48.582 588.047 48.81C587.651 49.026 587.153 49.398 586.553 49.926V56.73C586.553 56.826 586.529 56.898 586.481 56.946C586.445 56.982 586.379 57 586.283 57H585.293ZM602.595 47.46C602.763 47.46 602.847 47.55 602.847 47.73V48.486C602.847 48.594 602.877 48.648 602.937 48.648C602.973 48.648 603.021 48.618 603.081 48.558C603.333 48.306 603.555 48.102 603.747 47.946C603.939 47.79 604.221 47.64 604.593 47.496C604.965 47.352 605.403 47.28 605.907 47.28C606.663 47.28 607.335 47.46 607.923 47.82C608.523 48.18 608.991 48.72 609.327 49.44C609.675 50.16 609.849 51.042 609.849 52.086C609.849 53.142 609.675 54.054 609.327 54.822C608.991 55.59 608.511 56.178 607.887 56.586C607.263 56.982 606.537 57.18 605.709 57.18C604.713 57.18 603.861 56.88 603.153 56.28C603.069 56.196 603.003 56.154 602.955 56.154C602.895 56.154 602.865 56.232 602.865 56.388V59.736C602.865 59.892 602.799 59.97 602.667 59.97H601.551C601.419 59.97 601.353 59.892 601.353 59.736V47.748C601.353 47.652 601.371 47.58 601.407 47.532C601.455 47.484 601.533 47.46 601.641 47.46H602.595ZM602.865 54.894C603.249 55.29 603.633 55.59 604.017 55.794C604.413 55.986 604.845 56.082 605.313 56.082C606.213 56.082 606.933 55.74 607.473 55.056C608.025 54.372 608.301 53.388 608.301 52.104C608.301 50.856 608.031 49.926 607.491 49.314C606.951 48.69 606.255 48.378 605.403 48.378C604.923 48.378 604.491 48.486 604.107 48.702C603.723 48.906 603.417 49.17 603.189 49.494C602.973 49.818 602.865 50.136 602.865 50.448V54.894ZM613.624 56.694C613.624 56.814 613.6 56.898 613.552 56.946C613.504 56.982 613.42 57 613.3 57H612.364C612.256 57 612.184 56.982 612.148 56.946C612.112 56.91 612.094 56.844 612.094 56.748L612.112 43.896C612.112 43.728 612.184 43.644 612.328 43.644H613.408C613.552 43.644 613.624 43.722 613.624 43.878V56.694ZM617.408 52.824C617.408 53.4 617.546 53.934 617.822 54.426C618.11 54.918 618.494 55.308 618.974 55.596C619.454 55.884 619.982 56.028 620.558 56.028C621.758 56.028 622.694 55.53 623.366 54.534C623.414 54.486 623.456 54.462 623.492 54.462C623.528 54.45 623.57 54.456 623.618 54.48L624.374 54.858C624.47 54.918 624.482 55.002 624.41 55.11C623.942 55.83 623.384 56.358 622.736 56.694C622.088 57.018 621.314 57.18 620.414 57.18C619.538 57.18 618.752 56.976 618.056 56.568C617.36 56.16 616.814 55.59 616.418 54.858C616.034 54.114 615.842 53.268 615.842 52.32C615.842 51.3 616.04 50.412 616.436 49.656C616.832 48.888 617.372 48.3 618.056 47.892C618.752 47.484 619.532 47.28 620.396 47.28C621.26 47.28 622.016 47.472 622.664 47.856C623.324 48.24 623.834 48.804 624.194 49.548C624.554 50.28 624.734 51.15 624.734 52.158V52.23C624.734 52.338 624.716 52.422 624.68 52.482C624.644 52.53 624.572 52.554 624.464 52.554H617.57C617.462 52.554 617.408 52.644 617.408 52.824ZM622.916 51.564C623.048 51.564 623.132 51.552 623.168 51.528C623.204 51.492 623.222 51.42 623.222 51.312C623.222 50.784 623.108 50.298 622.88 49.854C622.664 49.398 622.34 49.038 621.908 48.774C621.488 48.498 620.996 48.36 620.432 48.36C619.82 48.36 619.286 48.516 618.83 48.828C618.374 49.128 618.026 49.524 617.786 50.016C617.546 50.496 617.432 51.012 617.444 51.564H622.916ZM629.309 48.576C629.213 48.576 629.165 48.63 629.165 48.738V54.444C629.165 54.984 629.255 55.356 629.435 55.56C629.615 55.764 629.909 55.866 630.317 55.866H631.559C631.691 55.866 631.757 55.932 631.757 56.064L631.739 56.676C631.739 56.796 631.667 56.874 631.523 56.91C631.211 56.97 630.647 57 629.831 57C629.075 57 628.523 56.826 628.175 56.478C627.827 56.118 627.653 55.554 627.653 54.786V48.774C627.653 48.642 627.593 48.576 627.473 48.576H626.033C625.901 48.576 625.835 48.516 625.835 48.396V47.64C625.835 47.52 625.895 47.46 626.015 47.46H627.545C627.629 47.46 627.671 47.412 627.671 47.316L627.869 44.454C627.869 44.298 627.935 44.22 628.067 44.22H628.967C629.111 44.22 629.183 44.304 629.183 44.472V47.316C629.183 47.412 629.231 47.46 629.327 47.46H631.595C631.727 47.46 631.793 47.514 631.793 47.622V48.396C631.793 48.516 631.727 48.576 631.595 48.576H629.309ZM635.334 45.408C635.334 45.528 635.31 45.618 635.262 45.678C635.214 45.726 635.13 45.75 635.01 45.75H633.966C633.786 45.75 633.696 45.648 633.696 45.444V43.932C633.696 43.74 633.78 43.644 633.948 43.644H635.082C635.154 43.644 635.214 43.668 635.262 43.716C635.31 43.764 635.334 43.83 635.334 43.914V45.408ZM635.262 56.694C635.262 56.814 635.238 56.898 635.19 56.946C635.142 56.982 635.058 57 634.938 57H634.02C633.912 57 633.84 56.982 633.804 56.946C633.768 56.91 633.75 56.844 633.75 56.748V47.712C633.75 47.544 633.822 47.46 633.966 47.46H635.064C635.196 47.46 635.262 47.538 635.262 47.694V56.694ZM642.052 57.18C641.152 57.18 640.354 56.976 639.658 56.568C638.974 56.148 638.44 55.566 638.056 54.822C637.684 54.078 637.498 53.232 637.498 52.284C637.498 51.312 637.69 50.448 638.074 49.692C638.47 48.936 639.01 48.348 639.694 47.928C640.39 47.496 641.182 47.28 642.07 47.28C642.958 47.28 643.744 47.496 644.428 47.928C645.124 48.348 645.658 48.936 646.03 49.692C646.414 50.448 646.606 51.306 646.606 52.266C646.606 53.214 646.414 54.06 646.03 54.804C645.646 55.548 645.106 56.13 644.41 56.55C643.726 56.97 642.94 57.18 642.052 57.18ZM642.088 56.046C643.024 56.046 643.75 55.71 644.266 55.038C644.794 54.354 645.058 53.418 645.058 52.23C645.058 51.054 644.788 50.124 644.248 49.44C643.72 48.744 642.994 48.396 642.07 48.396C641.134 48.396 640.396 48.744 639.856 49.44C639.316 50.124 639.046 51.054 639.046 52.23C639.046 53.406 639.316 54.336 639.856 55.02C640.396 55.704 641.14 56.046 642.088 56.046ZM649.084 57C648.916 57 648.832 56.922 648.832 56.766V47.694C648.832 47.538 648.898 47.46 649.03 47.46H650.11C650.242 47.46 650.308 47.526 650.308 47.658V48.702C650.308 48.834 650.362 48.852 650.47 48.756C651.142 48.228 651.712 47.85 652.18 47.622C652.66 47.394 653.194 47.28 653.782 47.28C654.694 47.28 655.402 47.526 655.906 48.018C656.422 48.51 656.68 49.17 656.68 49.998V56.712C656.68 56.904 656.59 57 656.41 57H655.402C655.246 57 655.168 56.922 655.168 56.766V50.34C655.168 49.74 655.012 49.278 654.7 48.954C654.4 48.63 653.932 48.468 653.296 48.468C652.792 48.468 652.324 48.582 651.892 48.81C651.472 49.026 650.956 49.398 650.344 49.926V56.73C650.344 56.826 650.32 56.898 650.272 56.946C650.236 56.982 650.17 57 650.074 57H649.084Z" fill="white"/>
<path d="M729.19 8.576C729.094 8.576 729.046 8.63 729.046 8.738V14.444C729.046 14.984 729.136 15.356 729.316 15.56C729.496 15.764 729.79 15.866 730.198 15.866H731.44C731.572 15.866 731.638 15.932 731.638 16.064L731.62 16.676C731.62 16.796 731.548 16.874 731.404 16.91C731.092 16.97 730.528 17 729.712 17C728.956 17 728.404 16.826 728.056 16.478C727.708 16.118 727.534 15.554 727.534 14.786V8.774C727.534 8.642 727.474 8.576 727.354 8.576H725.914C725.782 8.576 725.716 8.516 725.716 8.396V7.64C725.716 7.52 725.776 7.46 725.896 7.46H727.426C727.51 7.46 727.552 7.412 727.552 7.316L727.75 4.454C727.75 4.298 727.816 4.22 727.948 4.22H728.848C728.992 4.22 729.064 4.304 729.064 4.472V7.316C729.064 7.412 729.112 7.46 729.208 7.46H731.476C731.608 7.46 731.674 7.514 731.674 7.622V8.396C731.674 8.516 731.608 8.576 731.476 8.576H729.19ZM735.215 5.408C735.215 5.528 735.191 5.618 735.143 5.678C735.095 5.726 735.011 5.75 734.891 5.75H733.847C733.667 5.75 733.577 5.648 733.577 5.444V3.932C733.577 3.74 733.661 3.644 733.829 3.644H734.963C735.035 3.644 735.095 3.668 735.143 3.716C735.191 3.764 735.215 3.83 735.215 3.914V5.408ZM735.143 16.694C735.143 16.814 735.119 16.898 735.071 16.946C735.023 16.982 734.939 17 734.819 17H733.901C733.793 17 733.721 16.982 733.685 16.946C733.649 16.91 733.631 16.844 733.631 16.748V7.712C733.631 7.544 733.703 7.46 733.847 7.46H734.945C735.077 7.46 735.143 7.538 735.143 7.694V16.694ZM738.19 17C738.022 17 737.938 16.922 737.938 16.766V7.694C737.938 7.538 738.004 7.46 738.136 7.46H739.216C739.336 7.46 739.396 7.526 739.396 7.658V8.702C739.396 8.846 739.456 8.864 739.576 8.756C740.224 8.228 740.776 7.85 741.232 7.622C741.688 7.394 742.198 7.28 742.762 7.28C743.434 7.28 743.986 7.43 744.418 7.73C744.862 8.03 745.162 8.408 745.318 8.864C745.342 8.9 745.366 8.918 745.39 8.918C745.426 8.918 745.486 8.888 745.57 8.828C746.194 8.3 746.752 7.91 747.244 7.658C747.748 7.406 748.276 7.28 748.828 7.28C749.692 7.28 750.364 7.526 750.844 8.018C751.336 8.51 751.582 9.176 751.582 10.016V16.712C751.582 16.904 751.492 17 751.312 17H750.304C750.148 17 750.07 16.922 750.07 16.766V10.34C750.07 9.74 749.926 9.278 749.638 8.954C749.35 8.63 748.918 8.468 748.342 8.468C747.862 8.468 747.412 8.588 746.992 8.828C746.572 9.056 746.164 9.344 745.768 9.692C745.672 9.788 745.606 9.872 745.57 9.944C745.534 10.016 745.516 10.106 745.516 10.214V16.712C745.516 16.904 745.426 17 745.246 17H744.238C744.082 17 744.004 16.922 744.004 16.766V10.34C744.004 9.092 743.428 8.468 742.276 8.468C741.796 8.468 741.352 8.582 740.944 8.81C740.548 9.026 740.05 9.398 739.45 9.926V16.73C739.45 16.826 739.426 16.898 739.378 16.946C739.342 16.982 739.276 17 739.18 17H738.19ZM755.258 12.824C755.258 13.4 755.396 13.934 755.672 14.426C755.96 14.918 756.344 15.308 756.824 15.596C757.304 15.884 757.832 16.028 758.408 16.028C759.608 16.028 760.544 15.53 761.216 14.534C761.264 14.486 761.306 14.462 761.342 14.462C761.378 14.45 761.42 14.456 761.468 14.48L762.224 14.858C762.32 14.918 762.332 15.002 762.26 15.11C761.792 15.83 761.234 16.358 760.586 16.694C759.938 17.018 759.164 17.18 758.264 17.18C757.388 17.18 756.602 16.976 755.906 16.568C755.21 16.16 754.664 15.59 754.268 14.858C753.884 14.114 753.692 13.268 753.692 12.32C753.692 11.3 753.89 10.412 754.286 9.656C754.682 8.888 755.222 8.3 755.906 7.892C756.602 7.484 757.382 7.28 758.246 7.28C759.11 7.28 759.866 7.472 760.514 7.856C761.174 8.24 761.684 8.804 762.044 9.548C762.404 10.28 762.584 11.15 762.584 12.158V12.23C762.584 12.338 762.566 12.422 762.53 12.482C762.494 12.53 762.422 12.554 762.314 12.554H755.42C755.312 12.554 755.258 12.644 755.258 12.824ZM760.766 11.564C760.898 11.564 760.982 11.552 761.018 11.528C761.054 11.492 761.072 11.42 761.072 11.312C761.072 10.784 760.958 10.298 760.73 9.854C760.514 9.398 760.19 9.038 759.758 8.774C759.338 8.498 758.846 8.36 758.282 8.36C757.67 8.36 757.136 8.516 756.68 8.828C756.224 9.128 755.876 9.524 755.636 10.016C755.396 10.496 755.282 11.012 755.294 11.564H760.766Z" fill="#BCCCDC"/>
<rect x="117" y="30" width="81" height="42" rx="8" fill="#F2EBFE"/>
<path d="M131.475 57C131.307 57 131.223 56.922 131.223 56.766V47.694C131.223 47.538 131.289 47.46 131.421 47.46H132.465C132.597 47.46 132.663 47.526 132.663 47.658V48.828C132.663 48.9 132.681 48.942 132.717 48.954C132.765 48.966 132.813 48.942 132.861 48.882C133.773 47.814 134.703 47.28 135.651 47.28C136.071 47.28 136.281 47.358 136.281 47.514V48.594C136.281 48.714 136.227 48.762 136.119 48.738C135.903 48.702 135.633 48.684 135.309 48.684C134.961 48.684 134.583 48.786 134.175 48.99C133.767 49.194 133.425 49.458 133.149 49.782C132.873 50.106 132.735 50.436 132.735 50.772V56.73C132.735 56.91 132.645 57 132.465 57H131.475ZM138.893 52.824C138.893 53.4 139.031 53.934 139.307 54.426C139.595 54.918 139.979 55.308 140.459 55.596C140.939 55.884 141.467 56.028 142.043 56.028C143.243 56.028 144.179 55.53 144.851 54.534C144.899 54.486 144.941 54.462 144.977 54.462C145.013 54.45 145.055 54.456 145.103 54.48L145.859 54.858C145.955 54.918 145.967 55.002 145.895 55.11C145.427 55.83 144.869 56.358 144.221 56.694C143.573 57.018 142.799 57.18 141.899 57.18C141.023 57.18 140.237 56.976 139.541 56.568C138.845 56.16 138.299 55.59 137.903 54.858C137.519 54.114 137.327 53.268 137.327 52.32C137.327 51.3 137.525 50.412 137.921 49.656C138.317 48.888 138.857 48.3 139.541 47.892C140.237 47.484 141.017 47.28 141.881 47.28C142.745 47.28 143.501 47.472 144.149 47.856C144.809 48.24 145.319 48.804 145.679 49.548C146.039 50.28 146.219 51.15 146.219 52.158V52.23C146.219 52.338 146.201 52.422 146.165 52.482C146.129 52.53 146.057 52.554 145.949 52.554H139.055C138.947 52.554 138.893 52.644 138.893 52.824ZM144.401 51.564C144.533 51.564 144.617 51.552 144.653 51.528C144.689 51.492 144.707 51.42 144.707 51.312C144.707 50.784 144.593 50.298 144.365 49.854C144.149 49.398 143.825 49.038 143.393 48.774C142.973 48.498 142.481 48.36 141.917 48.36C141.305 48.36 140.771 48.516 140.315 48.828C139.859 49.128 139.511 49.524 139.271 50.016C139.031 50.496 138.917 51.012 138.929 51.564H144.401ZM156.102 47.46C156.186 47.46 156.24 47.49 156.264 47.55C156.3 47.598 156.306 47.652 156.282 47.712L152.628 56.73C152.568 56.91 152.43 57 152.214 57H151.566C151.338 57 151.188 56.916 151.116 56.748L147.48 47.73C147.468 47.706 147.462 47.676 147.462 47.64C147.462 47.52 147.534 47.46 147.678 47.46H148.794C148.926 47.46 149.022 47.526 149.082 47.658L151.908 54.732C151.944 54.852 151.986 54.912 152.034 54.912C152.082 54.912 152.136 54.846 152.196 54.714L155.004 47.658C155.04 47.526 155.13 47.46 155.274 47.46H156.102ZM159.771 45.408C159.771 45.528 159.747 45.618 159.699 45.678C159.651 45.726 159.567 45.75 159.447 45.75H158.403C158.223 45.75 158.133 45.648 158.133 45.444V43.932C158.133 43.74 158.217 43.644 158.385 43.644H159.519C159.591 43.644 159.651 43.668 159.699 43.716C159.747 43.764 159.771 43.83 159.771 43.914V45.408ZM159.699 56.694C159.699 56.814 159.675 56.898 159.627 56.946C159.579 56.982 159.495 57 159.375 57H158.457C158.349 57 158.277 56.982 158.241 56.946C158.205 56.91 158.187 56.844 158.187 56.748V47.712C158.187 47.544 158.259 47.46 158.403 47.46H159.501C159.633 47.46 159.699 47.538 159.699 47.694V56.694ZM163.502 52.824C163.502 53.4 163.64 53.934 163.916 54.426C164.204 54.918 164.588 55.308 165.068 55.596C165.548 55.884 166.076 56.028 166.652 56.028C167.852 56.028 168.788 55.53 169.46 54.534C169.508 54.486 169.55 54.462 169.586 54.462C169.622 54.45 169.664 54.456 169.712 54.48L170.468 54.858C170.564 54.918 170.576 55.002 170.504 55.11C170.036 55.83 169.478 56.358 168.83 56.694C168.182 57.018 167.408 57.18 166.508 57.18C165.632 57.18 164.846 56.976 164.15 56.568C163.454 56.16 162.908 55.59 162.512 54.858C162.128 54.114 161.936 53.268 161.936 52.32C161.936 51.3 162.134 50.412 162.53 49.656C162.926 48.888 163.466 48.3 164.15 47.892C164.846 47.484 165.626 47.28 166.49 47.28C167.354 47.28 168.11 47.472 168.758 47.856C169.418 48.24 169.928 48.804 170.288 49.548C170.648 50.28 170.828 51.15 170.828 52.158V52.23C170.828 52.338 170.81 52.422 170.774 52.482C170.738 52.53 170.666 52.554 170.558 52.554H163.664C163.556 52.554 163.502 52.644 163.502 52.824ZM169.01 51.564C169.142 51.564 169.226 51.552 169.262 51.528C169.298 51.492 169.316 51.42 169.316 51.312C169.316 50.784 169.202 50.298 168.974 49.854C168.758 49.398 168.434 49.038 168.002 48.774C167.582 48.498 167.09 48.36 166.526 48.36C165.914 48.36 165.38 48.516 164.924 48.828C164.468 49.128 164.12 49.524 163.88 50.016C163.64 50.496 163.526 51.012 163.538 51.564H169.01ZM185.157 47.46C185.229 47.46 185.283 47.49 185.319 47.55C185.355 47.598 185.361 47.652 185.337 47.712L182.583 56.766C182.535 56.922 182.421 57 182.241 57H181.377C181.173 57 181.047 56.922 180.999 56.766L178.857 50.034C178.821 49.926 178.779 49.872 178.731 49.872C178.707 49.872 178.677 49.926 178.641 50.034L176.607 56.766C176.559 56.922 176.445 57 176.265 57H175.347C175.143 57 175.017 56.922 174.969 56.766L172.143 47.73C172.131 47.706 172.125 47.676 172.125 47.64C172.125 47.52 172.197 47.46 172.341 47.46H173.403C173.535 47.46 173.631 47.526 173.691 47.658L175.833 54.66C175.869 54.78 175.911 54.84 175.959 54.84C175.995 54.84 176.043 54.774 176.103 54.642L178.227 47.64C178.263 47.52 178.347 47.46 178.479 47.46H179.325C179.469 47.46 179.559 47.526 179.595 47.658L181.809 54.66C181.845 54.78 181.887 54.84 181.935 54.84C181.983 54.84 182.025 54.774 182.061 54.642L184.131 47.658C184.191 47.526 184.293 47.46 184.437 47.46H185.157Z" fill="#44056E"/>
<rect x="210" y="30" width="81" height="42" rx="8" fill="#F2EBFE"/>
<path d="M224.475 57C224.307 57 224.223 56.922 224.223 56.766V47.694C224.223 47.538 224.289 47.46 224.421 47.46H225.465C225.597 47.46 225.663 47.526 225.663 47.658V48.828C225.663 48.9 225.681 48.942 225.717 48.954C225.765 48.966 225.813 48.942 225.861 48.882C226.773 47.814 227.703 47.28 228.651 47.28C229.071 47.28 229.281 47.358 229.281 47.514V48.594C229.281 48.714 229.227 48.762 229.119 48.738C228.903 48.702 228.633 48.684 228.309 48.684C227.961 48.684 227.583 48.786 227.175 48.99C226.767 49.194 226.425 49.458 226.149 49.782C225.873 50.106 225.735 50.436 225.735 50.772V56.73C225.735 56.91 225.645 57 225.465 57H224.475ZM231.893 52.824C231.893 53.4 232.031 53.934 232.307 54.426C232.595 54.918 232.979 55.308 233.459 55.596C233.939 55.884 234.467 56.028 235.043 56.028C236.243 56.028 237.179 55.53 237.851 54.534C237.899 54.486 237.941 54.462 237.977 54.462C238.013 54.45 238.055 54.456 238.103 54.48L238.859 54.858C238.955 54.918 238.967 55.002 238.895 55.11C238.427 55.83 237.869 56.358 237.221 56.694C236.573 57.018 235.799 57.18 234.899 57.18C234.023 57.18 233.237 56.976 232.541 56.568C231.845 56.16 231.299 55.59 230.903 54.858C230.519 54.114 230.327 53.268 230.327 52.32C230.327 51.3 230.525 50.412 230.921 49.656C231.317 48.888 231.857 48.3 232.541 47.892C233.237 47.484 234.017 47.28 234.881 47.28C235.745 47.28 236.501 47.472 237.149 47.856C237.809 48.24 238.319 48.804 238.679 49.548C239.039 50.28 239.219 51.15 239.219 52.158V52.23C239.219 52.338 239.201 52.422 239.165 52.482C239.129 52.53 239.057 52.554 238.949 52.554H232.055C231.947 52.554 231.893 52.644 231.893 52.824ZM237.401 51.564C237.533 51.564 237.617 51.552 237.653 51.528C237.689 51.492 237.707 51.42 237.707 51.312C237.707 50.784 237.593 50.298 237.365 49.854C237.149 49.398 236.825 49.038 236.393 48.774C235.973 48.498 235.481 48.36 234.917 48.36C234.305 48.36 233.771 48.516 233.315 48.828C232.859 49.128 232.511 49.524 232.271 50.016C232.031 50.496 231.917 51.012 231.929 51.564H237.401ZM249.102 47.46C249.186 47.46 249.24 47.49 249.264 47.55C249.3 47.598 249.306 47.652 249.282 47.712L245.628 56.73C245.568 56.91 245.43 57 245.214 57H244.566C244.338 57 244.188 56.916 244.116 56.748L240.48 47.73C240.468 47.706 240.462 47.676 240.462 47.64C240.462 47.52 240.534 47.46 240.678 47.46H241.794C241.926 47.46 242.022 47.526 242.082 47.658L244.908 54.732C244.944 54.852 244.986 54.912 245.034 54.912C245.082 54.912 245.136 54.846 245.196 54.714L248.004 47.658C248.04 47.526 248.13 47.46 248.274 47.46H249.102ZM252.771 45.408C252.771 45.528 252.747 45.618 252.699 45.678C252.651 45.726 252.567 45.75 252.447 45.75H251.403C251.223 45.75 251.133 45.648 251.133 45.444V43.932C251.133 43.74 251.217 43.644 251.385 43.644H252.519C252.591 43.644 252.651 43.668 252.699 43.716C252.747 43.764 252.771 43.83 252.771 43.914V45.408ZM252.699 56.694C252.699 56.814 252.675 56.898 252.627 56.946C252.579 56.982 252.495 57 252.375 57H251.457C251.349 57 251.277 56.982 251.241 56.946C251.205 56.91 251.187 56.844 251.187 56.748V47.712C251.187 47.544 251.259 47.46 251.403 47.46H252.501C252.633 47.46 252.699 47.538 252.699 47.694V56.694ZM256.502 52.824C256.502 53.4 256.64 53.934 256.916 54.426C257.204 54.918 257.588 55.308 258.068 55.596C258.548 55.884 259.076 56.028 259.652 56.028C260.852 56.028 261.788 55.53 262.46 54.534C262.508 54.486 262.55 54.462 262.586 54.462C262.622 54.45 262.664 54.456 262.712 54.48L263.468 54.858C263.564 54.918 263.576 55.002 263.504 55.11C263.036 55.83 262.478 56.358 261.83 56.694C261.182 57.018 260.408 57.18 259.508 57.18C258.632 57.18 257.846 56.976 257.15 56.568C256.454 56.16 255.908 55.59 255.512 54.858C255.128 54.114 254.936 53.268 254.936 52.32C254.936 51.3 255.134 50.412 255.53 49.656C255.926 48.888 256.466 48.3 257.15 47.892C257.846 47.484 258.626 47.28 259.49 47.28C260.354 47.28 261.11 47.472 261.758 47.856C262.418 48.24 262.928 48.804 263.288 49.548C263.648 50.28 263.828 51.15 263.828 52.158V52.23C263.828 52.338 263.81 52.422 263.774 52.482C263.738 52.53 263.666 52.554 263.558 52.554H256.664C256.556 52.554 256.502 52.644 256.502 52.824ZM262.01 51.564C262.142 51.564 262.226 51.552 262.262 51.528C262.298 51.492 262.316 51.42 262.316 51.312C262.316 50.784 262.202 50.298 261.974 49.854C261.758 49.398 261.434 49.038 261.002 48.774C260.582 48.498 260.09 48.36 259.526 48.36C258.914 48.36 258.38 48.516 257.924 48.828C257.468 49.128 257.12 49.524 256.88 50.016C256.64 50.496 256.526 51.012 256.538 51.564H262.01ZM278.157 47.46C278.229 47.46 278.283 47.49 278.319 47.55C278.355 47.598 278.361 47.652 278.337 47.712L275.583 56.766C275.535 56.922 275.421 57 275.241 57H274.377C274.173 57 274.047 56.922 273.999 56.766L271.857 50.034C271.821 49.926 271.779 49.872 271.731 49.872C271.707 49.872 271.677 49.926 271.641 50.034L269.607 56.766C269.559 56.922 269.445 57 269.265 57H268.347C268.143 57 268.017 56.922 267.969 56.766L265.143 47.73C265.131 47.706 265.125 47.676 265.125 47.64C265.125 47.52 265.197 47.46 265.341 47.46H266.403C266.535 47.46 266.631 47.526 266.691 47.658L268.833 54.66C268.869 54.78 268.911 54.84 268.959 54.84C268.995 54.84 269.043 54.774 269.103 54.642L271.227 47.64C271.263 47.52 271.347 47.46 271.479 47.46H272.325C272.469 47.46 272.559 47.526 272.595 47.658L274.809 54.66C274.845 54.78 274.887 54.84 274.935 54.84C274.983 54.84 275.025 54.774 275.061 54.642L277.131 47.658C277.191 47.526 277.293 47.46 277.437 47.46H278.157Z" fill="#44056E"/>
<rect x="303" y="30" width="13" height="42" rx="6.5" fill="#F2EBFE"/>
<rect x="322" y="30" width="13" height="42" rx="6.5" fill="#F2EBFE"/>
<rect x="506" y="30" width="13" height="42" rx="6.5" fill="#F2EBFE"/>
<rect x="525" y="30" width="13" height="42" rx="6.5" fill="#F2EBFE"/>
<rect x="341" y="30" width="13" height="42" rx="6.5" fill="#F2EBFE"/>
<path d="M683.55 41C683.51 41 683.48 40.9867 683.46 40.96C683.44 40.9267 683.44 40.8833 683.46 40.83L686.05 33.72C686.07 33.6667 686.093 33.63 686.12 33.61C686.147 33.59 686.19 33.58 686.25 33.58H687.03C687.157 33.58 687.233 33.63 687.26 33.73L689.82 40.83L689.83 40.88C689.83 40.96 689.793 41 689.72 41H689.01C688.93 41 688.877 40.9667 688.85 40.9L688.16 38.96C688.147 38.9333 688.133 38.9133 688.12 38.9C688.107 38.8867 688.08 38.88 688.04 38.88H685.13C685.07 38.88 685.03 38.9067 685.01 38.96L684.3 40.91C684.28 40.97 684.23 41 684.15 41H683.55ZM687.78 38.12C687.853 38.12 687.88 38.0767 687.86 37.99L686.66 34.7C686.64 34.64 686.617 34.61 686.59 34.61C686.563 34.61 686.54 34.64 686.52 34.7L685.3 38.01L685.28 38.07C685.28 38.1033 685.307 38.12 685.36 38.12H687.78ZM692.201 36.32C692.148 36.32 692.121 36.35 692.121 36.41V39.58C692.121 39.88 692.171 40.0867 692.271 40.2C692.371 40.3133 692.535 40.37 692.761 40.37H693.451C693.525 40.37 693.561 40.4067 693.561 40.48L693.551 40.82C693.551 40.8867 693.511 40.93 693.431 40.95C693.258 40.9833 692.945 41 692.491 41C692.071 41 691.765 40.9033 691.571 40.71C691.378 40.51 691.281 40.1967 691.281 39.77V36.43C691.281 36.3567 691.248 36.32 691.181 36.32H690.381C690.308 36.32 690.271 36.2867 690.271 36.22V35.8C690.271 35.7333 690.305 35.7 690.371 35.7H691.221C691.268 35.7 691.291 35.6733 691.291 35.62L691.401 34.03C691.401 33.9433 691.438 33.9 691.511 33.9H692.011C692.091 33.9 692.131 33.9467 692.131 34.04V35.62C692.131 35.6733 692.158 35.7 692.211 35.7H693.471C693.545 35.7 693.581 35.73 693.581 35.79V36.22C693.581 36.2867 693.545 36.32 693.471 36.32H692.201ZM698.217 36.32C698.164 36.32 698.137 36.35 698.137 36.41V39.58C698.137 39.88 698.187 40.0867 698.287 40.2C698.387 40.3133 698.55 40.37 698.777 40.37H699.467C699.54 40.37 699.577 40.4067 699.577 40.48L699.567 40.82C699.567 40.8867 699.527 40.93 699.447 40.95C699.274 40.9833 698.96 41 698.507 41C698.087 41 697.78 40.9033 697.587 40.71C697.394 40.51 697.297 40.1967 697.297 39.77V36.43C697.297 36.3567 697.264 36.32 697.197 36.32H696.397C696.324 36.32 696.287 36.2867 696.287 36.22V35.8C696.287 35.7333 696.32 35.7 696.387 35.7H697.237C697.284 35.7 697.307 35.6733 697.307 35.62L697.417 34.03C697.417 33.9433 697.454 33.9 697.527 33.9H698.027C698.107 33.9 698.147 33.9467 698.147 34.04V35.62C698.147 35.6733 698.174 35.7 698.227 35.7H699.487C699.56 35.7 699.597 35.73 699.597 35.79V36.22C699.597 36.2867 699.56 36.32 699.487 36.32H698.217ZM700.824 41C700.737 41 700.694 40.9567 700.694 40.87V33.71C700.694 33.6233 700.731 33.58 700.804 33.58H701.394C701.467 33.58 701.504 33.62 701.504 33.7V36.37C701.504 36.4433 701.534 36.4533 701.594 36.4C701.974 36.1067 702.297 35.9 702.564 35.78C702.831 35.66 703.124 35.6 703.444 35.6C703.957 35.6 704.351 35.7367 704.624 36.01C704.904 36.2833 705.044 36.6533 705.044 37.12V40.84C705.044 40.9467 704.994 41 704.894 41H704.334C704.247 41 704.204 40.9567 704.204 40.87V37.3C704.204 36.9667 704.117 36.71 703.944 36.53C703.777 36.35 703.517 36.26 703.164 36.26C702.884 36.26 702.627 36.3233 702.394 36.45C702.167 36.57 701.881 36.7767 701.534 37.07V40.85C701.534 40.95 701.481 41 701.374 41H700.824ZM707.404 34.56C707.404 34.6267 707.391 34.6767 707.364 34.71C707.337 34.7367 707.291 34.75 707.224 34.75H706.644C706.544 34.75 706.494 34.6933 706.494 34.58V33.74C706.494 33.6333 706.541 33.58 706.634 33.58H707.264C707.304 33.58 707.337 33.5933 707.364 33.62C707.391 33.6467 707.404 33.6833 707.404 33.73V34.56ZM707.364 40.83C707.364 40.8967 707.351 40.9433 707.324 40.97C707.297 40.99 707.251 41 707.184 41H706.674C706.614 41 706.574 40.99 706.554 40.97C706.534 40.95 706.524 40.9133 706.524 40.86V35.84C706.524 35.7467 706.564 35.7 706.644 35.7H707.254C707.327 35.7 707.364 35.7433 707.364 35.83V40.83ZM712.096 36.87C711.956 36.6633 711.763 36.5 711.516 36.38C711.276 36.2533 710.996 36.19 710.676 36.19C710.31 36.19 710.01 36.27 709.776 36.43C709.543 36.5833 709.426 36.7867 709.426 37.04C709.426 37.1933 709.483 37.3333 709.596 37.46C709.716 37.58 709.93 37.6867 710.236 37.78L711.506 38.16C711.946 38.28 712.273 38.46 712.486 38.7C712.7 38.9333 712.806 39.2133 712.806 39.54C712.806 39.8467 712.713 40.12 712.526 40.36C712.34 40.5933 712.083 40.7767 711.756 40.91C711.43 41.0367 711.06 41.1 710.646 41.1C710.133 41.1 709.676 41 709.276 40.8C708.876 40.5933 708.593 40.3267 708.426 40C708.406 39.9667 708.396 39.94 708.396 39.92C708.396 39.8867 708.413 39.86 708.446 39.84L708.836 39.62C708.903 39.58 708.953 39.5833 708.986 39.63C709.346 40.2033 709.903 40.49 710.656 40.49C711.05 40.4833 711.373 40.4033 711.626 40.25C711.886 40.09 712.016 39.8833 712.016 39.63C712.016 39.4433 711.94 39.2867 711.786 39.16C711.633 39.0333 711.383 38.92 711.036 38.82L710.006 38.53C709.52 38.4033 709.17 38.2267 708.956 38C708.75 37.7733 708.646 37.4967 708.646 37.17C708.646 36.8633 708.73 36.59 708.896 36.35C709.07 36.11 709.31 35.9267 709.616 35.8C709.93 35.6667 710.286 35.6 710.686 35.6C711.126 35.6 711.52 35.6833 711.866 35.85C712.22 36.0167 712.49 36.2433 712.676 36.53C712.723 36.5967 712.72 36.6433 712.666 36.67L712.246 36.9C712.22 36.9133 712.2 36.92 712.186 36.92C712.16 36.92 712.13 36.9033 712.096 36.87ZM716.872 35.7C716.965 35.7 717.012 35.75 717.012 35.85V36.27C717.012 36.33 717.029 36.36 717.062 36.36C717.082 36.36 717.109 36.3433 717.142 36.31C717.282 36.17 717.405 36.0567 717.512 35.97C717.619 35.8833 717.775 35.8 717.982 35.72C718.189 35.64 718.432 35.6 718.712 35.6C719.132 35.6 719.505 35.7 719.832 35.9C720.165 36.1 720.425 36.4 720.612 36.8C720.805 37.2 720.902 37.69 720.902 38.27C720.902 38.8567 720.805 39.3633 720.612 39.79C720.425 40.2167 720.159 40.5433 719.812 40.77C719.465 40.99 719.062 41.1 718.602 41.1C718.049 41.1 717.575 40.9333 717.182 40.6C717.135 40.5533 717.099 40.53 717.072 40.53C717.039 40.53 717.022 40.5733 717.022 40.66V42.52C717.022 42.6067 716.985 42.65 716.912 42.65H716.292C716.219 42.65 716.182 42.6067 716.182 42.52V35.86C716.182 35.8067 716.192 35.7667 716.212 35.74C716.239 35.7133 716.282 35.7 716.342 35.7H716.872ZM717.022 39.83C717.235 40.05 717.449 40.2167 717.662 40.33C717.882 40.4367 718.122 40.49 718.382 40.49C718.882 40.49 719.282 40.3 719.582 39.92C719.889 39.54 720.042 38.9933 720.042 38.28C720.042 37.5867 719.892 37.07 719.592 36.73C719.292 36.3833 718.905 36.21 718.432 36.21C718.165 36.21 717.925 36.27 717.712 36.39C717.499 36.5033 717.329 36.65 717.202 36.83C717.082 37.01 717.022 37.1867 717.022 37.36V39.83ZM724.369 41.1C723.869 41.1 723.426 40.9867 723.039 40.76C722.659 40.5267 722.362 40.2033 722.149 39.79C721.942 39.3767 721.839 38.9067 721.839 38.38C721.839 37.84 721.946 37.36 722.159 36.94C722.379 36.52 722.679 36.1933 723.059 35.96C723.446 35.72 723.886 35.6 724.379 35.6C724.872 35.6 725.309 35.72 725.689 35.96C726.076 36.1933 726.372 36.52 726.579 36.94C726.792 37.36 726.899 37.8367 726.899 38.37C726.899 38.8967 726.792 39.3667 726.579 39.78C726.366 40.1933 726.066 40.5167 725.679 40.75C725.299 40.9833 724.862 41.1 724.369 41.1ZM724.389 40.47C724.909 40.47 725.312 40.2833 725.599 39.91C725.892 39.53 726.039 39.01 726.039 38.35C726.039 37.6967 725.889 37.18 725.589 36.8C725.296 36.4133 724.892 36.22 724.379 36.22C723.859 36.22 723.449 36.4133 723.149 36.8C722.849 37.18 722.699 37.6967 722.699 38.35C722.699 39.0033 722.849 39.52 723.149 39.9C723.449 40.28 723.862 40.47 724.389 40.47ZM729.015 34.56C729.015 34.6267 729.002 34.6767 728.975 34.71C728.949 34.7367 728.902 34.75 728.835 34.75H728.255C728.155 34.75 728.105 34.6933 728.105 34.58V33.74C728.105 33.6333 728.152 33.58 728.245 33.58H728.875C728.915 33.58 728.949 33.5933 728.975 33.62C729.002 33.6467 729.015 33.6833 729.015 33.73V34.56ZM728.975 40.83C728.975 40.8967 728.962 40.9433 728.935 40.97C728.909 40.99 728.862 41 728.795 41H728.285C728.225 41 728.185 40.99 728.165 40.97C728.145 40.95 728.135 40.9133 728.135 40.86V35.84C728.135 35.7467 728.175 35.7 728.255 35.7H728.865C728.939 35.7 728.975 35.7433 728.975 35.83V40.83ZM730.668 41C730.574 41 730.528 40.9567 730.528 40.87V35.83C730.528 35.7433 730.564 35.7 730.638 35.7H731.238C731.311 35.7 731.348 35.7367 731.348 35.81V36.39C731.348 36.4633 731.378 36.4733 731.438 36.42C731.811 36.1267 732.128 35.9167 732.388 35.79C732.654 35.6633 732.951 35.6 733.278 35.6C733.784 35.6 734.178 35.7367 734.458 36.01C734.744 36.2833 734.888 36.65 734.888 37.11V40.84C734.888 40.9467 734.838 41 734.738 41H734.178C734.091 41 734.048 40.9567 734.048 40.87V37.3C734.048 36.9667 733.961 36.71 733.788 36.53C733.621 36.35 733.361 36.26 733.008 36.26C732.728 36.26 732.468 36.3233 732.228 36.45C731.994 36.57 731.708 36.7767 731.368 37.07V40.85C731.368 40.9033 731.354 40.9433 731.328 40.97C731.308 40.99 731.271 41 731.218 41H730.668ZM737.768 36.32C737.714 36.32 737.688 36.35 737.688 36.41V39.58C737.688 39.88 737.738 40.0867 737.838 40.2C737.938 40.3133 738.101 40.37 738.328 40.37H739.018C739.091 40.37 739.128 40.4067 739.128 40.48L739.118 40.82C739.118 40.8867 739.078 40.93 738.998 40.95C738.824 40.9833 738.511 41 738.058 41C737.638 41 737.331 40.9033 737.138 40.71C736.944 40.51 736.848 40.1967 736.848 39.77V36.43C736.848 36.3567 736.814 36.32 736.748 36.32H735.948C735.874 36.32 735.838 36.2867 735.838 36.22V35.8C735.838 35.7333 735.871 35.7 735.938 35.7H736.788C736.834 35.7 736.858 35.6733 736.858 35.62L736.968 34.03C736.968 33.9433 737.004 33.9 737.078 33.9H737.578C737.658 33.9 737.698 33.9467 737.698 34.04V35.62C737.698 35.6733 737.724 35.7 737.778 35.7H739.038C739.111 35.7 739.148 35.73 739.148 35.79V36.22C739.148 36.2867 739.111 36.32 739.038 36.32H737.768ZM739.985 42.43C739.952 42.43 739.928 42.4167 739.915 42.39C739.902 42.3633 739.902 42.3267 739.915 42.28L740.365 41.16C740.385 41.12 740.395 41.09 740.395 41.07C740.395 41.0233 740.358 41 740.285 41H740.155C740.068 41 740.025 40.96 740.025 40.88V39.99C740.025 39.9167 740.058 39.88 740.125 39.88H740.955C741.022 39.88 741.055 39.9133 741.055 39.98V40.8C741.055 40.8467 741.045 40.8867 741.025 40.92L740.295 42.32C740.255 42.3933 740.188 42.43 740.095 42.43H739.985ZM744.642 41C744.549 41 744.502 40.9567 744.502 40.87V35.83C744.502 35.7433 744.539 35.7 744.612 35.7H745.212C745.279 35.7 745.312 35.7367 745.312 35.81V36.39C745.312 36.47 745.346 36.48 745.412 36.42C745.772 36.1267 746.079 35.9167 746.332 35.79C746.586 35.6633 746.869 35.6 747.182 35.6C747.556 35.6 747.862 35.6833 748.102 35.85C748.349 36.0167 748.516 36.2267 748.602 36.48C748.616 36.5 748.629 36.51 748.642 36.51C748.662 36.51 748.696 36.4933 748.742 36.46C749.089 36.1667 749.399 35.95 749.672 35.81C749.952 35.67 750.246 35.6 750.552 35.6C751.032 35.6 751.406 35.7367 751.672 36.01C751.946 36.2833 752.082 36.6533 752.082 37.12V40.84C752.082 40.9467 752.032 41 751.932 41H751.372C751.286 41 751.242 40.9567 751.242 40.87V37.3C751.242 36.9667 751.162 36.71 751.002 36.53C750.842 36.35 750.602 36.26 750.282 36.26C750.016 36.26 749.766 36.3267 749.532 36.46C749.299 36.5867 749.072 36.7467 748.852 36.94C748.799 36.9933 748.762 37.04 748.742 37.08C748.722 37.12 748.712 37.17 748.712 37.23V40.84C748.712 40.9467 748.662 41 748.562 41H748.002C747.916 41 747.872 40.9567 747.872 40.87V37.3C747.872 36.6067 747.552 36.26 746.912 36.26C746.646 36.26 746.399 36.3233 746.172 36.45C745.952 36.57 745.676 36.7767 745.342 37.07V40.85C745.342 40.9033 745.329 40.9433 745.302 40.97C745.282 40.99 745.246 41 745.192 41H744.642ZM755.785 41.1C755.285 41.1 754.842 40.9867 754.455 40.76C754.075 40.5267 753.778 40.2033 753.565 39.79C753.358 39.3767 753.255 38.9067 753.255 38.38C753.255 37.84 753.362 37.36 753.575 36.94C753.795 36.52 754.095 36.1933 754.475 35.96C754.862 35.72 755.302 35.6 755.795 35.6C756.288 35.6 756.725 35.72 757.105 35.96C757.492 36.1933 757.788 36.52 757.995 36.94C758.208 37.36 758.315 37.8367 758.315 38.37C758.315 38.8967 758.208 39.3667 757.995 39.78C757.782 40.1933 757.482 40.5167 757.095 40.75C756.715 40.9833 756.278 41.1 755.785 41.1ZM755.805 40.47C756.325 40.47 756.728 40.2833 757.015 39.91C757.308 39.53 757.455 39.01 757.455 38.35C757.455 37.6967 757.305 37.18 757.005 36.8C756.712 36.4133 756.308 36.22 755.795 36.22C755.275 36.22 754.865 36.4133 754.565 36.8C754.265 37.18 754.115 37.6967 754.115 38.35C754.115 39.0033 754.265 39.52 754.565 39.9C754.865 40.28 755.278 40.47 755.805 40.47ZM762.731 36.87C762.591 36.6633 762.398 36.5 762.151 36.38C761.911 36.2533 761.631 36.19 761.311 36.19C760.945 36.19 760.645 36.27 760.411 36.43C760.178 36.5833 760.061 36.7867 760.061 37.04C760.061 37.1933 760.118 37.3333 760.231 37.46C760.351 37.58 760.565 37.6867 760.871 37.78L762.141 38.16C762.581 38.28 762.908 38.46 763.121 38.7C763.335 38.9333 763.441 39.2133 763.441 39.54C763.441 39.8467 763.348 40.12 763.161 40.36C762.975 40.5933 762.718 40.7767 762.391 40.91C762.065 41.0367 761.695 41.1 761.281 41.1C760.768 41.1 760.311 41 759.911 40.8C759.511 40.5933 759.228 40.3267 759.061 40C759.041 39.9667 759.031 39.94 759.031 39.92C759.031 39.8867 759.048 39.86 759.081 39.84L759.471 39.62C759.538 39.58 759.588 39.5833 759.621 39.63C759.981 40.2033 760.538 40.49 761.291 40.49C761.685 40.4833 762.008 40.4033 762.261 40.25C762.521 40.09 762.651 39.8833 762.651 39.63C762.651 39.4433 762.575 39.2867 762.421 39.16C762.268 39.0333 762.018 38.92 761.671 38.82L760.641 38.53C760.155 38.4033 759.805 38.2267 759.591 38C759.385 37.7733 759.281 37.4967 759.281 37.17C759.281 36.8633 759.365 36.59 759.531 36.35C759.705 36.11 759.945 35.9267 760.251 35.8C760.565 35.6667 760.921 35.6 761.321 35.6C761.761 35.6 762.155 35.6833 762.501 35.85C762.855 36.0167 763.125 36.2433 763.311 36.53C763.358 36.5967 763.355 36.6433 763.301 36.67L762.881 36.9C762.855 36.9133 762.835 36.92 762.821 36.92C762.795 36.92 762.765 36.9033 762.731 36.87ZM766.068 36.32C766.015 36.32 765.988 36.35 765.988 36.41V39.58C765.988 39.88 766.038 40.0867 766.138 40.2C766.238 40.3133 766.402 40.37 766.628 40.37H767.318C767.392 40.37 767.428 40.4067 767.428 40.48L767.418 40.82C767.418 40.8867 767.378 40.93 767.298 40.95C767.125 40.9833 766.812 41 766.358 41C765.938 41 765.632 40.9033 765.438 40.71C765.245 40.51 765.148 40.1967 765.148 39.77V36.43C765.148 36.3567 765.115 36.32 765.048 36.32H764.248C764.175 36.32 764.138 36.2867 764.138 36.22V35.8C764.138 35.7333 764.172 35.7 764.238 35.7H765.088C765.135 35.7 765.158 35.6733 765.158 35.62L765.268 34.03C765.268 33.9433 765.305 33.9 765.378 33.9H765.878C765.958 33.9 765.998 33.9467 765.998 34.04V35.62C765.998 35.6733 766.025 35.7 766.078 35.7H767.338C767.412 35.7 767.448 35.73 767.448 35.79V36.22C767.448 36.2867 767.412 36.32 767.338 36.32H766.068ZM688.07 49.7C688.123 49.7 688.16 49.7133 688.18 49.74C688.207 49.7667 688.22 49.81 688.22 49.87V56.52C688.22 56.6067 688.18 56.65 688.1 56.65H687.49C687.417 56.65 687.38 56.6067 687.38 56.52V54.68C687.38 54.5867 687.367 54.54 687.34 54.54C687.32 54.54 687.283 54.56 687.23 54.6C687.037 54.7467 686.813 54.8667 686.56 54.96C686.307 55.0533 686.037 55.1 685.75 55.1C685.283 55.1 684.88 54.9867 684.54 54.76C684.2 54.5333 683.937 54.2133 683.75 53.8C683.57 53.38 683.48 52.89 683.48 52.33C683.48 51.7833 683.57 51.3067 683.75 50.9C683.937 50.4867 684.2 50.1667 684.54 49.94C684.887 49.7133 685.297 49.6 685.77 49.6C686.203 49.6 686.54 49.67 686.78 49.81C687.027 49.9433 687.24 50.11 687.42 50.31C687.453 50.3433 687.473 50.36 687.48 50.36C687.5 50.36 687.517 50.3333 687.53 50.28L687.6 49.86C687.613 49.8 687.63 49.76 687.65 49.74C687.677 49.7133 687.72 49.7 687.78 49.7H688.07ZM687.38 51.49C687.38 51.2633 687.317 51.05 687.19 50.85C687.07 50.65 686.9 50.49 686.68 50.37C686.467 50.25 686.23 50.19 685.97 50.19C685.497 50.19 685.107 50.3733 684.8 50.74C684.493 51.1 684.34 51.6267 684.34 52.32C684.34 53.0133 684.49 53.55 684.79 53.93C685.09 54.3033 685.487 54.49 685.98 54.49C686.247 54.49 686.503 54.4333 686.75 54.32C686.997 54.2067 687.207 54.05 687.38 53.85V51.49ZM691.556 54.44C691.83 54.44 692.096 54.3667 692.356 54.22C692.623 54.0667 692.893 53.85 693.166 53.57V49.84C693.166 49.7467 693.22 49.7 693.326 49.7H693.876C693.97 49.7 694.016 49.7467 694.016 49.84L693.996 54.87C693.996 54.9567 693.96 55 693.886 55H693.306C693.233 55 693.196 54.9633 693.196 54.89V54.3C693.196 54.22 693.166 54.21 693.106 54.27C692.746 54.5767 692.426 54.7933 692.146 54.92C691.866 55.04 691.58 55.1 691.286 55.1C690.82 55.1 690.436 54.96 690.136 54.68C689.836 54.4 689.686 54.03 689.686 53.57V49.85C689.686 49.75 689.736 49.7 689.836 49.7H690.396C690.483 49.7 690.526 49.7467 690.526 49.84V53.35C690.526 53.6833 690.616 53.95 690.796 54.15C690.983 54.3433 691.236 54.44 691.556 54.44ZM696.107 52.68C696.107 53 696.184 53.2967 696.337 53.57C696.497 53.8433 696.711 54.06 696.977 54.22C697.244 54.38 697.537 54.46 697.857 54.46C698.524 54.46 699.044 54.1833 699.417 53.63C699.444 53.6033 699.467 53.59 699.487 53.59C699.507 53.5833 699.531 53.5867 699.557 53.6L699.977 53.81C700.031 53.8433 700.037 53.89 699.997 53.95C699.737 54.35 699.427 54.6433 699.067 54.83C698.707 55.01 698.277 55.1 697.777 55.1C697.291 55.1 696.854 54.9867 696.467 54.76C696.081 54.5333 695.777 54.2167 695.557 53.81C695.344 53.3967 695.237 52.9267 695.237 52.4C695.237 51.8333 695.347 51.34 695.567 50.92C695.787 50.4933 696.087 50.1667 696.467 49.94C696.854 49.7133 697.287 49.6 697.767 49.6C698.247 49.6 698.667 49.7067 699.027 49.92C699.394 50.1333 699.677 50.4467 699.877 50.86C700.077 51.2667 700.177 51.75 700.177 52.31V52.35C700.177 52.41 700.167 52.4567 700.147 52.49C700.127 52.5167 700.087 52.53 700.027 52.53H696.197C696.137 52.53 696.107 52.58 696.107 52.68ZM699.167 51.98C699.241 51.98 699.287 51.9733 699.307 51.96C699.327 51.94 699.337 51.9 699.337 51.84C699.337 51.5467 699.274 51.2767 699.147 51.03C699.027 50.7767 698.847 50.5767 698.607 50.43C698.374 50.2767 698.101 50.2 697.787 50.2C697.447 50.2 697.151 50.2867 696.897 50.46C696.644 50.6267 696.451 50.8467 696.317 51.12C696.184 51.3867 696.121 51.6733 696.127 51.98H699.167ZM704.538 50.87C704.398 50.6633 704.205 50.5 703.958 50.38C703.718 50.2533 703.438 50.19 703.118 50.19C702.751 50.19 702.451 50.27 702.218 50.43C701.985 50.5833 701.868 50.7867 701.868 51.04C701.868 51.1933 701.925 51.3333 702.038 51.46C702.158 51.58 702.371 51.6867 702.678 51.78L703.948 52.16C704.388 52.28 704.715 52.46 704.928 52.7C705.141 52.9333 705.248 53.2133 705.248 53.54C705.248 53.8467 705.155 54.12 704.968 54.36C704.781 54.5933 704.525 54.7767 704.198 54.91C703.871 55.0367 703.501 55.1 703.088 55.1C702.575 55.1 702.118 55 701.718 54.8C701.318 54.5933 701.035 54.3267 700.868 54C700.848 53.9667 700.838 53.94 700.838 53.92C700.838 53.8867 700.855 53.86 700.888 53.84L701.278 53.62C701.345 53.58 701.395 53.5833 701.428 53.63C701.788 54.2033 702.345 54.49 703.098 54.49C703.491 54.4833 703.815 54.4033 704.068 54.25C704.328 54.09 704.458 53.8833 704.458 53.63C704.458 53.4433 704.381 53.2867 704.228 53.16C704.075 53.0333 703.825 52.92 703.478 52.82L702.448 52.53C701.961 52.4033 701.611 52.2267 701.398 52C701.191 51.7733 701.088 51.4967 701.088 51.17C701.088 50.8633 701.171 50.59 701.338 50.35C701.511 50.11 701.751 49.9267 702.058 49.8C702.371 49.6667 702.728 49.6 703.128 49.6C703.568 49.6 703.961 49.6833 704.308 49.85C704.661 50.0167 704.931 50.2433 705.118 50.53C705.165 50.5967 705.161 50.6433 705.108 50.67L704.688 50.9C704.661 50.9133 704.641 50.92 704.628 50.92C704.601 50.92 704.571 50.9033 704.538 50.87ZM707.875 50.32C707.822 50.32 707.795 50.35 707.795 50.41V53.58C707.795 53.88 707.845 54.0867 707.945 54.2C708.045 54.3133 708.208 54.37 708.435 54.37H709.125C709.198 54.37 709.235 54.4067 709.235 54.48L709.225 54.82C709.225 54.8867 709.185 54.93 709.105 54.95C708.932 54.9833 708.618 55 708.165 55C707.745 55 707.438 54.9033 707.245 54.71C707.052 54.51 706.955 54.1967 706.955 53.77V50.43C706.955 50.3567 706.922 50.32 706.855 50.32H706.055C705.982 50.32 705.945 50.2867 705.945 50.22V49.8C705.945 49.7333 705.978 49.7 706.045 49.7H706.895C706.942 49.7 706.965 49.6733 706.965 49.62L707.075 48.03C707.075 47.9433 707.112 47.9 707.185 47.9H707.685C707.765 47.9 707.805 47.9467 707.805 48.04V49.62C707.805 49.6733 707.832 49.7 707.885 49.7H709.145C709.218 49.7 709.255 49.73 709.255 49.79V50.22C709.255 50.2867 709.218 50.32 709.145 50.32H707.875ZM711.222 48.56C711.222 48.6267 711.209 48.6767 711.182 48.71C711.156 48.7367 711.109 48.75 711.042 48.75H710.462C710.362 48.75 710.312 48.6933 710.312 48.58V47.74C710.312 47.6333 710.359 47.58 710.452 47.58H711.082C711.122 47.58 711.156 47.5933 711.182 47.62C711.209 47.6467 711.222 47.6833 711.222 47.73V48.56ZM711.182 54.83C711.182 54.8967 711.169 54.9433 711.142 54.97C711.116 54.99 711.069 55 711.002 55H710.492C710.432 55 710.392 54.99 710.372 54.97C710.352 54.95 710.342 54.9133 710.342 54.86V49.84C710.342 49.7467 710.382 49.7 710.462 49.7H711.072C711.146 49.7 711.182 49.7433 711.182 49.83V54.83ZM714.955 55.1C714.455 55.1 714.012 54.9867 713.625 54.76C713.245 54.5267 712.948 54.2033 712.735 53.79C712.528 53.3767 712.425 52.9067 712.425 52.38C712.425 51.84 712.532 51.36 712.745 50.94C712.965 50.52 713.265 50.1933 713.645 49.96C714.032 49.72 714.472 49.6 714.965 49.6C715.458 49.6 715.895 49.72 716.275 49.96C716.662 50.1933 716.958 50.52 717.165 50.94C717.378 51.36 717.485 51.8367 717.485 52.37C717.485 52.8967 717.378 53.3667 717.165 53.78C716.952 54.1933 716.652 54.5167 716.265 54.75C715.885 54.9833 715.448 55.1 714.955 55.1ZM714.975 54.47C715.495 54.47 715.898 54.2833 716.185 53.91C716.478 53.53 716.625 53.01 716.625 52.35C716.625 51.6967 716.475 51.18 716.175 50.8C715.882 50.4133 715.478 50.22 714.965 50.22C714.445 50.22 714.035 50.4133 713.735 50.8C713.435 51.18 713.285 51.6967 713.285 52.35C713.285 53.0033 713.435 53.52 713.735 53.9C714.035 54.28 714.448 54.47 714.975 54.47ZM718.861 55C718.768 55 718.721 54.9567 718.721 54.87V49.83C718.721 49.7433 718.758 49.7 718.831 49.7H719.431C719.505 49.7 719.541 49.7367 719.541 49.81V50.39C719.541 50.4633 719.571 50.4733 719.631 50.42C720.005 50.1267 720.321 49.9167 720.581 49.79C720.848 49.6633 721.145 49.6 721.471 49.6C721.978 49.6 722.371 49.7367 722.651 50.01C722.938 50.2833 723.081 50.65 723.081 51.11V54.84C723.081 54.9467 723.031 55 722.931 55H722.371C722.285 55 722.241 54.9567 722.241 54.87V51.3C722.241 50.9667 722.155 50.71 721.981 50.53C721.815 50.35 721.555 50.26 721.201 50.26C720.921 50.26 720.661 50.3233 720.421 50.45C720.188 50.57 719.901 50.7767 719.561 51.07V54.85C719.561 54.9033 719.548 54.9433 719.521 54.97C719.501 54.99 719.465 55 719.411 55H718.861ZM727.741 50.87C727.601 50.6633 727.408 50.5 727.161 50.38C726.921 50.2533 726.641 50.19 726.321 50.19C725.954 50.19 725.654 50.27 725.421 50.43C725.188 50.5833 725.071 50.7867 725.071 51.04C725.071 51.1933 725.128 51.3333 725.241 51.46C725.361 51.58 725.574 51.6867 725.881 51.78L727.151 52.16C727.591 52.28 727.918 52.46 728.131 52.7C728.344 52.9333 728.451 53.2133 728.451 53.54C728.451 53.8467 728.358 54.12 728.171 54.36C727.984 54.5933 727.728 54.7767 727.401 54.91C727.074 55.0367 726.704 55.1 726.291 55.1C725.778 55.1 725.321 55 724.921 54.8C724.521 54.5933 724.238 54.3267 724.071 54C724.051 53.9667 724.041 53.94 724.041 53.92C724.041 53.8867 724.058 53.86 724.091 53.84L724.481 53.62C724.548 53.58 724.598 53.5833 724.631 53.63C724.991 54.2033 725.548 54.49 726.301 54.49C726.694 54.4833 727.018 54.4033 727.271 54.25C727.531 54.09 727.661 53.8833 727.661 53.63C727.661 53.4433 727.584 53.2867 727.431 53.16C727.278 53.0333 727.028 52.92 726.681 52.82L725.651 52.53C725.164 52.4033 724.814 52.2267 724.601 52C724.394 51.7733 724.291 51.4967 724.291 51.17C724.291 50.8633 724.374 50.59 724.541 50.35C724.714 50.11 724.954 49.9267 725.261 49.8C725.574 49.6667 725.931 49.6 726.331 49.6C726.771 49.6 727.164 49.6833 727.511 49.85C727.864 50.0167 728.134 50.2433 728.321 50.53C728.368 50.5967 728.364 50.6433 728.311 50.67L727.891 50.9C727.864 50.9133 727.844 50.92 727.831 50.92C727.804 50.92 727.774 50.9033 727.741 50.87ZM738.607 49.7C738.647 49.7 738.677 49.7167 738.697 49.75C738.717 49.7767 738.72 49.8067 738.707 49.84L737.177 54.87C737.15 54.9567 737.087 55 736.987 55H736.507C736.393 55 736.323 54.9567 736.297 54.87L735.107 51.13C735.087 51.07 735.063 51.04 735.037 51.04C735.023 51.04 735.007 51.07 734.987 51.13L733.857 54.87C733.83 54.9567 733.767 55 733.667 55H733.157C733.043 55 732.973 54.9567 732.947 54.87L731.377 49.85C731.37 49.8367 731.367 49.82 731.367 49.8C731.367 49.7333 731.407 49.7 731.487 49.7H732.077C732.15 49.7 732.203 49.7367 732.237 49.81L733.427 53.7C733.447 53.7667 733.47 53.8 733.497 53.8C733.517 53.8 733.543 53.7633 733.577 53.69L734.757 49.8C734.777 49.7333 734.823 49.7 734.897 49.7H735.367C735.447 49.7 735.497 49.7367 735.517 49.81L736.747 53.7C736.767 53.7667 736.79 53.8 736.817 53.8C736.843 53.8 736.867 53.7633 736.887 53.69L738.037 49.81C738.07 49.7367 738.127 49.7 738.207 49.7H738.607ZM740.666 48.56C740.666 48.6267 740.652 48.6767 740.626 48.71C740.599 48.7367 740.552 48.75 740.486 48.75H739.906C739.806 48.75 739.756 48.6933 739.756 48.58V47.74C739.756 47.6333 739.802 47.58 739.896 47.58H740.526C740.566 47.58 740.599 47.5933 740.626 47.62C740.652 47.6467 740.666 47.6833 740.666 47.73V48.56ZM740.626 54.83C740.626 54.8967 740.612 54.9433 740.586 54.97C740.559 54.99 740.512 55 740.446 55H739.936C739.876 55 739.836 54.99 739.816 54.97C739.796 54.95 739.786 54.9133 739.786 54.86V49.84C739.786 49.7467 739.826 49.7 739.906 49.7H740.516C740.589 49.7 740.626 49.7433 740.626 49.83V54.83ZM743.028 54.83C743.028 54.8967 743.015 54.9433 742.988 54.97C742.962 54.99 742.915 55 742.848 55H742.328C742.268 55 742.228 54.99 742.208 54.97C742.188 54.95 742.178 54.9133 742.178 54.86L742.188 47.72C742.188 47.6267 742.228 47.58 742.308 47.58H742.908C742.988 47.58 743.028 47.6233 743.028 47.71V54.83ZM745.421 54.83C745.421 54.8967 745.407 54.9433 745.381 54.97C745.354 54.99 745.307 55 745.241 55H744.721C744.661 55 744.621 54.99 744.601 54.97C744.581 54.95 744.571 54.9133 744.571 54.86L744.581 47.72C744.581 47.6267 744.621 47.58 744.701 47.58H745.301C745.381 47.58 745.421 47.6233 745.421 47.71V54.83ZM749.272 55C749.212 55 749.168 54.99 749.142 54.97C749.122 54.9433 749.112 54.9 749.112 54.84V47.72C749.112 47.6267 749.152 47.58 749.232 47.58H749.852C749.918 47.58 749.952 47.6267 749.952 47.72V50.17C749.952 50.2433 749.968 50.28 750.002 50.28C750.022 50.28 750.055 50.2633 750.102 50.23C750.548 49.81 751.082 49.6 751.702 49.6C752.402 49.6 752.932 49.8533 753.292 50.36C753.658 50.86 753.842 51.5133 753.842 52.32C753.842 53.18 753.638 53.86 753.232 54.36C752.832 54.8533 752.275 55.1 751.562 55.1C751.155 55.1 750.818 55.02 750.552 54.86C750.285 54.6933 750.078 54.51 749.932 54.31C749.912 54.2833 749.892 54.27 749.872 54.27C749.845 54.27 749.828 54.2933 749.822 54.34L749.772 54.84C749.758 54.9 749.738 54.9433 749.712 54.97C749.692 54.99 749.652 55 749.592 55H749.272ZM749.952 53.21C749.952 53.4433 750.018 53.66 750.152 53.86C750.292 54.0533 750.472 54.21 750.692 54.33C750.912 54.4433 751.142 54.5 751.382 54.5C751.862 54.5 752.245 54.32 752.532 53.96C752.825 53.6 752.972 53.06 752.972 52.34C752.972 51.66 752.842 51.1367 752.582 50.77C752.322 50.3967 751.945 50.21 751.452 50.21C751.152 50.21 750.872 50.2767 750.612 50.41C750.358 50.5433 750.138 50.7233 749.952 50.95V53.21ZM755.658 52.68C755.658 53 755.735 53.2967 755.888 53.57C756.048 53.8433 756.261 54.06 756.528 54.22C756.795 54.38 757.088 54.46 757.408 54.46C758.075 54.46 758.595 54.1833 758.968 53.63C758.995 53.6033 759.018 53.59 759.038 53.59C759.058 53.5833 759.081 53.5867 759.108 53.6L759.528 53.81C759.581 53.8433 759.588 53.89 759.548 53.95C759.288 54.35 758.978 54.6433 758.618 54.83C758.258 55.01 757.828 55.1 757.328 55.1C756.841 55.1 756.405 54.9867 756.018 54.76C755.631 54.5333 755.328 54.2167 755.108 53.81C754.895 53.3967 754.788 52.9267 754.788 52.4C754.788 51.8333 754.898 51.34 755.118 50.92C755.338 50.4933 755.638 50.1667 756.018 49.94C756.405 49.7133 756.838 49.6 757.318 49.6C757.798 49.6 758.218 49.7067 758.578 49.92C758.945 50.1333 759.228 50.4467 759.428 50.86C759.628 51.2667 759.728 51.75 759.728 52.31V52.35C759.728 52.41 759.718 52.4567 759.698 52.49C759.678 52.5167 759.638 52.53 759.578 52.53H755.748C755.688 52.53 755.658 52.58 755.658 52.68ZM758.718 51.98C758.791 51.98 758.838 51.9733 758.858 51.96C758.878 51.94 758.888 51.9 758.888 51.84C758.888 51.5467 758.825 51.2767 758.698 51.03C758.578 50.7767 758.398 50.5767 758.158 50.43C757.925 50.2767 757.651 50.2 757.338 50.2C756.998 50.2 756.701 50.2867 756.448 50.46C756.195 50.6267 756.001 50.8467 755.868 51.12C755.735 51.3867 755.671 51.6733 755.678 51.98H758.718ZM683.91 69C683.817 69 683.77 68.9567 683.77 68.87V63.83C683.77 63.7433 683.807 63.7 683.88 63.7H684.46C684.533 63.7 684.57 63.7367 684.57 63.81V64.46C684.57 64.5 684.58 64.5233 684.6 64.53C684.627 64.5367 684.653 64.5233 684.68 64.49C685.187 63.8967 685.703 63.6 686.23 63.6C686.463 63.6 686.58 63.6433 686.58 63.73V64.33C686.58 64.3967 686.55 64.4233 686.49 64.41C686.37 64.39 686.22 64.38 686.04 64.38C685.847 64.38 685.637 64.4367 685.41 64.55C685.183 64.6633 684.993 64.81 684.84 64.99C684.687 65.17 684.61 65.3533 684.61 65.54V68.85C684.61 68.95 684.56 69 684.46 69H683.91ZM688.031 66.68C688.031 67 688.108 67.2967 688.261 67.57C688.421 67.8433 688.635 68.06 688.901 68.22C689.168 68.38 689.461 68.46 689.781 68.46C690.448 68.46 690.968 68.1833 691.341 67.63C691.368 67.6033 691.391 67.59 691.411 67.59C691.431 67.5833 691.455 67.5867 691.481 67.6L691.901 67.81C691.955 67.8433 691.961 67.89 691.921 67.95C691.661 68.35 691.351 68.6433 690.991 68.83C690.631 69.01 690.201 69.1 689.701 69.1C689.215 69.1 688.778 68.9867 688.391 68.76C688.005 68.5333 687.701 68.2167 687.481 67.81C687.268 67.3967 687.161 66.9267 687.161 66.4C687.161 65.8333 687.271 65.34 687.491 64.92C687.711 64.4933 688.011 64.1667 688.391 63.94C688.778 63.7133 689.211 63.6 689.691 63.6C690.171 63.6 690.591 63.7067 690.951 63.92C691.318 64.1333 691.601 64.4467 691.801 64.86C692.001 65.2667 692.101 65.75 692.101 66.31V66.35C692.101 66.41 692.091 66.4567 692.071 66.49C692.051 66.5167 692.011 66.53 691.951 66.53H688.121C688.061 66.53 688.031 66.58 688.031 66.68ZM691.091 65.98C691.165 65.98 691.211 65.9733 691.231 65.96C691.251 65.94 691.261 65.9 691.261 65.84C691.261 65.5467 691.198 65.2767 691.071 65.03C690.951 64.7767 690.771 64.5767 690.531 64.43C690.298 64.2767 690.025 64.2 689.711 64.2C689.371 64.2 689.075 64.2867 688.821 64.46C688.568 64.6267 688.375 64.8467 688.241 65.12C688.108 65.3867 688.045 65.6733 688.051 65.98H691.091ZM694.132 68.83C694.132 68.8967 694.118 68.9433 694.092 68.97C694.065 68.99 694.018 69 693.952 69H693.432C693.372 69 693.332 68.99 693.312 68.97C693.292 68.95 693.282 68.9133 693.282 68.86L693.292 61.72C693.292 61.6267 693.332 61.58 693.412 61.58H694.012C694.092 61.58 694.132 61.6233 694.132 61.71V68.83ZM696.554 62.56C696.554 62.6267 696.541 62.6767 696.514 62.71C696.488 62.7367 696.441 62.75 696.374 62.75H695.794C695.694 62.75 695.644 62.6933 695.644 62.58V61.74C695.644 61.6333 695.691 61.58 695.784 61.58H696.414C696.454 61.58 696.488 61.5933 696.514 61.62C696.541 61.6467 696.554 61.6833 696.554 61.73V62.56ZM696.514 68.83C696.514 68.8967 696.501 68.9433 696.474 68.97C696.448 68.99 696.401 69 696.334 69H695.824C695.764 69 695.724 68.99 695.704 68.97C695.684 68.95 695.674 68.9133 695.674 68.86V63.84C695.674 63.7467 695.714 63.7 695.794 63.7H696.404C696.478 63.7 696.514 63.7433 696.514 63.83V68.83ZM701.147 68.36C700.634 68.8533 700.04 69.1 699.367 69.1C698.847 69.1 698.437 68.97 698.137 68.71C697.844 68.4433 697.697 68.09 697.697 67.65C697.697 67.1167 697.92 66.6967 698.367 66.39C698.82 66.0833 699.474 65.9033 700.327 65.85L701.107 65.79C701.22 65.7767 701.277 65.7267 701.277 65.64V65.37C701.277 65.01 701.164 64.7267 700.937 64.52C700.717 64.3067 700.417 64.2 700.037 64.2C699.45 64.2 698.97 64.4667 698.597 65C698.577 65.0333 698.557 65.0567 698.537 65.07C698.517 65.0767 698.49 65.0733 698.457 65.06L697.917 64.88C697.884 64.8667 697.867 64.8433 697.867 64.81C697.867 64.79 697.877 64.76 697.897 64.72C698.097 64.3667 698.38 64.0933 698.747 63.9C699.12 63.7 699.56 63.6 700.067 63.6C700.72 63.6 701.22 63.7533 701.567 64.06C701.914 64.36 702.087 64.7767 702.087 65.31V68.85C702.087 68.91 702.077 68.95 702.057 68.97C702.037 68.99 702 69 701.947 69H701.447C701.367 69 701.32 68.9467 701.307 68.84L701.287 68.38C701.28 68.3333 701.264 68.31 701.237 68.31C701.21 68.31 701.18 68.3267 701.147 68.36ZM701.277 66.46C701.277 66.3533 701.227 66.3 701.127 66.3L700.477 66.36C699.857 66.4 699.377 66.52 699.037 66.72C698.704 66.92 698.537 67.1967 698.537 67.55C698.537 67.8367 698.637 68.0633 698.837 68.23C699.044 68.3967 699.317 68.48 699.657 68.48C699.864 68.48 700.067 68.4433 700.267 68.37C700.467 68.2967 700.644 68.1967 700.797 68.07C700.95 67.95 701.067 67.8233 701.147 67.69C701.234 67.55 701.277 67.4167 701.277 67.29V66.46ZM703.705 69C703.645 69 703.602 68.99 703.575 68.97C703.555 68.9433 703.545 68.9 703.545 68.84V61.72C703.545 61.6267 703.585 61.58 703.665 61.58H704.285C704.352 61.58 704.385 61.6267 704.385 61.72V64.17C704.385 64.2433 704.402 64.28 704.435 64.28C704.455 64.28 704.489 64.2633 704.535 64.23C704.982 63.81 705.515 63.6 706.135 63.6C706.835 63.6 707.365 63.8533 707.725 64.36C708.092 64.86 708.275 65.5133 708.275 66.32C708.275 67.18 708.072 67.86 707.665 68.36C707.265 68.8533 706.709 69.1 705.995 69.1C705.589 69.1 705.252 69.02 704.985 68.86C704.719 68.6933 704.512 68.51 704.365 68.31C704.345 68.2833 704.325 68.27 704.305 68.27C704.279 68.27 704.262 68.2933 704.255 68.34L704.205 68.84C704.192 68.9 704.172 68.9433 704.145 68.97C704.125 68.99 704.085 69 704.025 69H703.705ZM704.385 67.21C704.385 67.4433 704.452 67.66 704.585 67.86C704.725 68.0533 704.905 68.21 705.125 68.33C705.345 68.4433 705.575 68.5 705.815 68.5C706.295 68.5 706.679 68.32 706.965 67.96C707.259 67.6 707.405 67.06 707.405 66.34C707.405 65.66 707.275 65.1367 707.015 64.77C706.755 64.3967 706.379 64.21 705.885 64.21C705.585 64.21 705.305 64.2767 705.045 64.41C704.792 64.5433 704.572 64.7233 704.385 64.95V67.21ZM710.382 68.83C710.382 68.8967 710.368 68.9433 710.342 68.97C710.315 68.99 710.268 69 710.202 69H709.682C709.622 69 709.582 68.99 709.562 68.97C709.542 68.95 709.532 68.9133 709.532 68.86L709.542 61.72C709.542 61.6267 709.582 61.58 709.662 61.58H710.262C710.342 61.58 710.382 61.6233 710.382 61.71V68.83ZM712.214 70.65C711.981 70.65 711.821 70.6433 711.734 70.63C711.648 70.6167 711.604 70.58 711.604 70.52V70.13C711.604 70.0833 711.621 70.05 711.654 70.03C711.694 70.01 711.771 70 711.884 70H712.514C712.674 70 712.821 69.94 712.954 69.82C713.088 69.7067 713.191 69.5633 713.264 69.39C713.344 69.2167 713.384 69.05 713.384 68.89C713.384 68.79 713.371 68.71 713.344 68.65L711.434 63.87C711.428 63.8567 711.424 63.8367 711.424 63.81C711.424 63.7367 711.464 63.7 711.544 63.7H712.164C712.238 63.7 712.291 63.7367 712.324 63.81L713.814 67.69C713.834 67.75 713.861 67.78 713.894 67.78C713.934 67.78 713.968 67.74 713.994 67.66L715.464 63.81C715.498 63.7367 715.544 63.7 715.604 63.7H716.074C716.114 63.7 716.144 63.7167 716.164 63.75C716.184 63.7767 716.188 63.8067 716.174 63.84L713.974 69.47C713.794 69.9233 713.571 70.2333 713.304 70.4C713.038 70.5667 712.674 70.65 712.214 70.65ZM719.515 69C719.422 69 719.375 68.9567 719.375 68.87V63.83C719.375 63.7433 719.412 63.7 719.485 63.7H720.085C720.152 63.7 720.185 63.7367 720.185 63.81V64.39C720.185 64.47 720.219 64.48 720.285 64.42C720.645 64.1267 720.952 63.9167 721.205 63.79C721.459 63.6633 721.742 63.6 722.055 63.6C722.429 63.6 722.735 63.6833 722.975 63.85C723.222 64.0167 723.389 64.2267 723.475 64.48C723.489 64.5 723.502 64.51 723.515 64.51C723.535 64.51 723.569 64.4933 723.615 64.46C723.962 64.1667 724.272 63.95 724.545 63.81C724.825 63.67 725.119 63.6 725.425 63.6C725.905 63.6 726.279 63.7367 726.545 64.01C726.819 64.2833 726.955 64.6533 726.955 65.12V68.84C726.955 68.9467 726.905 69 726.805 69H726.245C726.159 69 726.115 68.9567 726.115 68.87V65.3C726.115 64.9667 726.035 64.71 725.875 64.53C725.715 64.35 725.475 64.26 725.155 64.26C724.889 64.26 724.639 64.3267 724.405 64.46C724.172 64.5867 723.945 64.7467 723.725 64.94C723.672 64.9933 723.635 65.04 723.615 65.08C723.595 65.12 723.585 65.17 723.585 65.23V68.84C723.585 68.9467 723.535 69 723.435 69H722.875C722.789 69 722.745 68.9567 722.745 68.87V65.3C722.745 64.6067 722.425 64.26 721.785 64.26C721.519 64.26 721.272 64.3233 721.045 64.45C720.825 64.57 720.549 64.7767 720.215 65.07V68.85C720.215 68.9033 720.202 68.9433 720.175 68.97C720.155 68.99 720.119 69 720.065 69H719.515ZM728.998 66.68C728.998 67 729.075 67.2967 729.228 67.57C729.388 67.8433 729.601 68.06 729.868 68.22C730.135 68.38 730.428 68.46 730.748 68.46C731.415 68.46 731.935 68.1833 732.308 67.63C732.335 67.6033 732.358 67.59 732.378 67.59C732.398 67.5833 732.421 67.5867 732.448 67.6L732.868 67.81C732.921 67.8433 732.928 67.89 732.888 67.95C732.628 68.35 732.318 68.6433 731.958 68.83C731.598 69.01 731.168 69.1 730.668 69.1C730.181 69.1 729.745 68.9867 729.358 68.76C728.971 68.5333 728.668 68.2167 728.448 67.81C728.235 67.3967 728.128 66.9267 728.128 66.4C728.128 65.8333 728.238 65.34 728.458 64.92C728.678 64.4933 728.978 64.1667 729.358 63.94C729.745 63.7133 730.178 63.6 730.658 63.6C731.138 63.6 731.558 63.7067 731.918 63.92C732.285 64.1333 732.568 64.4467 732.768 64.86C732.968 65.2667 733.068 65.75 733.068 66.31V66.35C733.068 66.41 733.058 66.4567 733.038 66.49C733.018 66.5167 732.978 66.53 732.918 66.53H729.088C729.028 66.53 728.998 66.58 728.998 66.68ZM732.058 65.98C732.131 65.98 732.178 65.9733 732.198 65.96C732.218 65.94 732.228 65.9 732.228 65.84C732.228 65.5467 732.165 65.2767 732.038 65.03C731.918 64.7767 731.738 64.5767 731.498 64.43C731.265 64.2767 730.991 64.2 730.678 64.2C730.338 64.2 730.041 64.2867 729.788 64.46C729.535 64.6267 729.341 64.8467 729.208 65.12C729.075 65.3867 729.011 65.6733 729.018 65.98H732.058ZM734.389 69C734.295 69 734.249 68.9567 734.249 68.87V63.83C734.249 63.7433 734.285 63.7 734.359 63.7H734.959C735.025 63.7 735.059 63.7367 735.059 63.81V64.39C735.059 64.47 735.092 64.48 735.159 64.42C735.519 64.1267 735.825 63.9167 736.079 63.79C736.332 63.6633 736.615 63.6 736.929 63.6C737.302 63.6 737.609 63.6833 737.849 63.85C738.095 64.0167 738.262 64.2267 738.349 64.48C738.362 64.5 738.375 64.51 738.389 64.51C738.409 64.51 738.442 64.4933 738.489 64.46C738.835 64.1667 739.145 63.95 739.419 63.81C739.699 63.67 739.992 63.6 740.299 63.6C740.779 63.6 741.152 63.7367 741.419 64.01C741.692 64.2833 741.829 64.6533 741.829 65.12V68.84C741.829 68.9467 741.779 69 741.679 69H741.119C741.032 69 740.989 68.9567 740.989 68.87V65.3C740.989 64.9667 740.909 64.71 740.749 64.53C740.589 64.35 740.349 64.26 740.029 64.26C739.762 64.26 739.512 64.3267 739.279 64.46C739.045 64.5867 738.819 64.7467 738.599 64.94C738.545 64.9933 738.509 65.04 738.489 65.08C738.469 65.12 738.459 65.17 738.459 65.23V68.84C738.459 68.9467 738.409 69 738.309 69H737.749C737.662 69 737.619 68.9567 737.619 68.87V65.3C737.619 64.6067 737.299 64.26 736.659 64.26C736.392 64.26 736.145 64.3233 735.919 64.45C735.699 64.57 735.422 64.7767 735.089 65.07V68.85C735.089 68.9033 735.075 68.9433 735.049 68.97C735.029 68.99 734.992 69 734.939 69H734.389ZM745.531 69.1C745.031 69.1 744.588 68.9867 744.201 68.76C743.821 68.5267 743.524 68.2033 743.311 67.79C743.104 67.3767 743.001 66.9067 743.001 66.38C743.001 65.84 743.108 65.36 743.321 64.94C743.541 64.52 743.841 64.1933 744.221 63.96C744.608 63.72 745.048 63.6 745.541 63.6C746.034 63.6 746.471 63.72 746.851 63.96C747.238 64.1933 747.534 64.52 747.741 64.94C747.954 65.36 748.061 65.8367 748.061 66.37C748.061 66.8967 747.954 67.3667 747.741 67.78C747.528 68.1933 747.228 68.5167 746.841 68.75C746.461 68.9833 746.024 69.1 745.531 69.1ZM745.551 68.47C746.071 68.47 746.474 68.2833 746.761 67.91C747.054 67.53 747.201 67.01 747.201 66.35C747.201 65.6967 747.051 65.18 746.751 64.8C746.458 64.4133 746.054 64.22 745.541 64.22C745.021 64.22 744.611 64.4133 744.311 64.8C744.011 65.18 743.861 65.6967 743.861 66.35C743.861 67.0033 744.011 67.52 744.311 67.9C744.611 68.28 745.024 68.47 745.551 68.47ZM749.437 69C749.344 69 749.297 68.9567 749.297 68.87V63.83C749.297 63.7433 749.334 63.7 749.407 63.7H749.987C750.061 63.7 750.097 63.7367 750.097 63.81V64.46C750.097 64.5 750.107 64.5233 750.127 64.53C750.154 64.5367 750.181 64.5233 750.207 64.49C750.714 63.8967 751.231 63.6 751.757 63.6C751.991 63.6 752.107 63.6433 752.107 63.73V64.33C752.107 64.3967 752.077 64.4233 752.017 64.41C751.897 64.39 751.747 64.38 751.567 64.38C751.374 64.38 751.164 64.4367 750.937 64.55C750.711 64.6633 750.521 64.81 750.367 64.99C750.214 65.17 750.137 65.3533 750.137 65.54V68.85C750.137 68.95 750.087 69 749.987 69H749.437ZM754.005 62.56C754.005 62.6267 753.992 62.6767 753.965 62.71C753.939 62.7367 753.892 62.75 753.825 62.75H753.245C753.145 62.75 753.095 62.6933 753.095 62.58V61.74C753.095 61.6333 753.142 61.58 753.235 61.58H753.865C753.905 61.58 753.939 61.5933 753.965 61.62C753.992 61.6467 754.005 61.6833 754.005 61.73V62.56ZM753.965 68.83C753.965 68.8967 753.952 68.9433 753.925 68.97C753.899 68.99 753.852 69 753.785 69H753.275C753.215 69 753.175 68.99 753.155 68.97C753.135 68.95 753.125 68.9133 753.125 68.86V63.84C753.125 63.7467 753.165 63.7 753.245 63.7H753.855C753.929 63.7 753.965 63.7433 753.965 63.83V68.83ZM755.178 69C755.131 69 755.098 68.9933 755.078 68.98C755.065 68.96 755.058 68.9267 755.058 68.88V68.59C755.058 68.5367 755.065 68.4933 755.078 68.46C755.098 68.42 755.131 68.3667 755.178 68.3L758.088 64.39L758.118 64.33C758.118 64.3033 758.091 64.29 758.038 64.29H755.388C755.348 64.29 755.318 64.2833 755.298 64.27C755.285 64.2567 755.278 64.2267 755.278 64.18V63.81C755.278 63.7367 755.311 63.7 755.378 63.7H759.078C759.138 63.7 759.168 63.7333 759.168 63.8V64.12C759.168 64.2067 759.135 64.2933 759.068 64.38L756.148 68.3C756.121 68.3333 756.111 68.36 756.118 68.38C756.125 68.4 756.145 68.41 756.178 68.41H759.118C759.191 68.41 759.228 68.44 759.228 68.5V68.88C759.228 68.96 759.185 69 759.098 69H755.178ZM760.902 66.68C760.902 67 760.979 67.2967 761.132 67.57C761.292 67.8433 761.506 68.06 761.772 68.22C762.039 68.38 762.332 68.46 762.652 68.46C763.319 68.46 763.839 68.1833 764.212 67.63C764.239 67.6033 764.262 67.59 764.282 67.59C764.302 67.5833 764.326 67.5867 764.352 67.6L764.772 67.81C764.826 67.8433 764.832 67.89 764.792 67.95C764.532 68.35 764.222 68.6433 763.862 68.83C763.502 69.01 763.072 69.1 762.572 69.1C762.086 69.1 761.649 68.9867 761.262 68.76C760.876 68.5333 760.572 68.2167 760.352 67.81C760.139 67.3967 760.032 66.9267 760.032 66.4C760.032 65.8333 760.142 65.34 760.362 64.92C760.582 64.4933 760.882 64.1667 761.262 63.94C761.649 63.7133 762.082 63.6 762.562 63.6C763.042 63.6 763.462 63.7067 763.822 63.92C764.189 64.1333 764.472 64.4467 764.672 64.86C764.872 65.2667 764.972 65.75 764.972 66.31V66.35C764.972 66.41 764.962 66.4567 764.942 66.49C764.922 66.5167 764.882 66.53 764.822 66.53H760.992C760.932 66.53 760.902 66.58 760.902 66.68ZM763.962 65.98C764.036 65.98 764.082 65.9733 764.102 65.96C764.122 65.94 764.132 65.9 764.132 65.84C764.132 65.5467 764.069 65.2767 763.942 65.03C763.822 64.7767 763.642 64.5767 763.402 64.43C763.169 64.2767 762.896 64.2 762.582 64.2C762.242 64.2 761.946 64.2867 761.692 64.46C761.439 64.6267 761.246 64.8467 761.112 65.12C760.979 65.3867 760.916 65.6733 760.922 65.98H763.962ZM769.923 69C769.829 69 769.783 68.9533 769.783 68.86V68.43C769.783 68.37 769.766 68.34 769.733 68.34C769.713 68.34 769.686 68.3567 769.653 68.39C769.453 68.59 769.233 68.76 768.993 68.9C768.759 69.0333 768.456 69.1 768.083 69.1C767.656 69.1 767.276 69 766.943 68.8C766.609 68.6 766.346 68.3 766.153 67.9C765.959 67.4933 765.863 67.0033 765.863 66.43C765.863 65.87 765.963 65.3767 766.163 64.95C766.363 64.5233 766.639 64.1933 766.993 63.96C767.346 63.72 767.749 63.6 768.203 63.6C768.503 63.6 768.763 63.6467 768.983 63.74C769.203 63.8333 769.409 63.9633 769.603 64.13C769.656 64.17 769.693 64.19 769.713 64.19C769.746 64.19 769.763 64.1467 769.763 64.06V61.71C769.763 61.6233 769.799 61.58 769.873 61.58H770.483C770.556 61.58 770.593 61.6233 770.593 61.71V68.84C770.593 68.9 770.583 68.9433 770.563 68.97C770.543 68.99 770.499 69 770.433 69H769.923ZM769.753 64.87C769.539 64.6567 769.323 64.4967 769.103 64.39C768.889 64.2767 768.656 64.22 768.403 64.22C767.896 64.22 767.489 64.41 767.183 64.79C766.876 65.17 766.723 65.7067 766.723 66.4C766.723 67.1 766.873 67.6233 767.173 67.97C767.479 68.3167 767.869 68.49 768.343 68.49C768.603 68.49 768.839 68.43 769.053 68.31C769.273 68.1833 769.443 68.0267 769.563 67.84C769.689 67.6533 769.753 67.4667 769.753 67.28V64.87ZM772.919 68.84C772.919 68.9 772.906 68.9433 772.879 68.97C772.852 68.99 772.806 69 772.739 69H772.039C771.986 69 771.946 68.99 771.919 68.97C771.899 68.95 771.889 68.9133 771.889 68.86V68C771.889 67.9133 771.926 67.87 771.999 67.87H772.819C772.886 67.87 772.919 67.91 772.919 67.99V68.84Z" fill="#404A5A"/>
</g>
<defs>
<clipPath id="clip0">
<rect width="774" height="72" fill="white"/>
</clipPath>
</defs>
</svg>
