<svg width="51" height="50" viewBox="0 0 51 50" fill="none" xmlns="http://www.w3.org/2000/svg">
<g id="Size=Bug, Color=Positive">
<path id="Vector" d="M25.5859 0C11.5252 0 0.75 10.7752 0.75 24.8183C0.75 38.8614 11.5252 49.6366 25.5859 49.6366C39.629 49.6366 50.404 38.8614 50.404 24.8183C50.404 10.7752 39.629 0 25.5859 0Z" fill="black"/>
<path id="Vector_2" d="M24.8794 16.7634H24.7911C19.4388 13.0362 19.1739 12.8949 17.902 12.8949H16.6126V24.2177H16.9658C19.0326 24.2177 19.3858 24.041 22.2474 20.6142H22.3358V28.881H22.2474C19.3858 25.4721 19.0326 25.2952 16.9658 25.2952H16.6126V33.6857C16.6126 35.2402 16.8952 35.5405 19.5801 37.6427V37.7308H8.66364V37.6427C10.8893 35.5051 11.0483 35.364 11.0483 33.8273V16.11C11.0483 14.4142 10.8893 14.2023 8.57532 11.9059V11.8176H24.8794V16.7634Z" fill="white"/>
<path id="Vector_3" d="M41.3601 37.2714C40.0353 37.8545 38.3749 38.1723 36.6617 38.1723C29.896 38.1723 25.7628 33.0496 25.7628 24.8534C25.7628 16.4452 29.9492 11.3932 36.7147 11.3932C38.4987 11.3932 40.2122 11.7465 41.4487 12.2765L41.6253 17.0811H41.537C38.8169 13.8662 37.5098 12.4531 35.8491 12.4531C33.3584 12.4531 31.6803 16.1273 31.6803 24.7121C31.6803 33.4206 33.3938 37.1124 35.9728 37.1124C37.58 37.1124 38.8167 35.7876 41.7313 32.1841H41.8194L41.3601 37.2714Z" fill="white"/>
</g>
</svg>
